<?xml version="1.0" standalone="no"?>
<mlt LC_NUMERIC="C" version="6.23.0" title="Shotcut version 20.10.31" producer="main_bin">
  <profile description="automatic" width="1280" height="720" progressive="1" sample_aspect_num="1" sample_aspect_den="1" display_aspect_num="1280" display_aspect_den="720" frame_rate_num="30" frame_rate_den="1" colorspace="709"/>
  <producer id="producer0" in="00:00:00.000" out="00:00:21.567">
    <property name="length">00:00:21.600</property>
    <property name="eof">pause</property>
    <property name="resource">/Users/pgrylls/University of Southampton/SoftCarp/data-analysis-and-visualisation/Videos/Day3/Clips/2020-11-19 14-27-07.mkv</property>
    <property name="audio_index">1</property>
    <property name="video_index">0</property>
    <property name="mute_on_pause">0</property>
    <property name="mlt_service">avformat-novalidate</property>
    <property name="seekable">1</property>
    <property name="aspect_ratio">1</property>
    <property name="creation_time">2020-11-19T14:27:30</property>
    <property name="shotcut:hash">fa81031dd44350e611838af5acdd0b2a</property>
    <property name="global_feed">1</property>
    <property name="xml">was here</property>
    <property name="ignore_points">1</property>
    <property name="shotcut:caption">2020-11-19 14-27-07.mkv</property>
  </producer>
  <producer id="producer1" in="00:00:00.000" out="00:00:29.233">
    <property name="length">00:00:29.267</property>
    <property name="eof">pause</property>
    <property name="resource">/Users/pgrylls/University of Southampton/SoftCarp/data-analysis-and-visualisation/Videos/Day3/Clips/2020-11-19 14-27-49.mkv</property>
    <property name="audio_index">1</property>
    <property name="video_index">0</property>
    <property name="mute_on_pause">0</property>
    <property name="mlt_service">avformat-novalidate</property>
    <property name="seekable">1</property>
    <property name="aspect_ratio">1</property>
    <property name="creation_time">2020-11-19T14:28:19</property>
    <property name="shotcut:hash">9ae2870b156c5809f51049dba7f95370</property>
    <property name="global_feed">1</property>
    <property name="xml">was here</property>
    <property name="ignore_points">1</property>
    <property name="shotcut:caption">2020-11-19 14-27-49.mkv</property>
  </producer>
  <producer id="producer2" in="00:00:00.000" out="00:00:33.567">
    <property name="length">00:00:33.600</property>
    <property name="eof">pause</property>
    <property name="resource">/Users/pgrylls/University of Southampton/SoftCarp/data-analysis-and-visualisation/Videos/Day3/Clips/2020-11-19 14-28-53.mkv</property>
    <property name="audio_index">1</property>
    <property name="video_index">0</property>
    <property name="mute_on_pause">0</property>
    <property name="mlt_service">avformat-novalidate</property>
    <property name="seekable">1</property>
    <property name="aspect_ratio">1</property>
    <property name="creation_time">2020-11-19T14:29:28</property>
    <property name="shotcut:hash">e869010384b9caeccdef663fd61596f7</property>
    <property name="global_feed">1</property>
    <property name="xml">was here</property>
    <property name="ignore_points">1</property>
    <property name="shotcut:caption">2020-11-19 14-28-53.mkv</property>
  </producer>
  <producer id="producer3" in="00:00:00.000" out="00:00:15.233">
    <property name="length">00:00:15.267</property>
    <property name="eof">pause</property>
    <property name="resource">/Users/pgrylls/University of Southampton/SoftCarp/data-analysis-and-visualisation/Videos/Day3/Clips/2020-11-19 14-30-01.mkv</property>
    <property name="audio_index">1</property>
    <property name="video_index">0</property>
    <property name="mute_on_pause">0</property>
    <property name="mlt_service">avformat-novalidate</property>
    <property name="seekable">1</property>
    <property name="aspect_ratio">1</property>
    <property name="creation_time">2020-11-19T14:30:18</property>
    <property name="shotcut:hash">05934b58b8b4c679f710a9adf85b03ca</property>
    <property name="global_feed">1</property>
    <property name="xml">was here</property>
    <property name="ignore_points">1</property>
    <property name="shotcut:caption">2020-11-19 14-30-01.mkv</property>
  </producer>
  <producer id="producer4" in="00:00:00.000" out="00:00:36.633">
    <property name="length">00:00:36.667</property>
    <property name="eof">pause</property>
    <property name="resource">/Users/pgrylls/University of Southampton/SoftCarp/data-analysis-and-visualisation/Videos/Day3/Clips/2020-11-19 14-30-52.mkv</property>
    <property name="audio_index">1</property>
    <property name="video_index">0</property>
    <property name="mute_on_pause">0</property>
    <property name="mlt_service">avformat-novalidate</property>
    <property name="seekable">1</property>
    <property name="aspect_ratio">1</property>
    <property name="creation_time">2020-11-19T14:31:30</property>
    <property name="shotcut:hash">0491fc1eb74257d16ee3b5b8f53286dd</property>
    <property name="global_feed">1</property>
    <property name="xml">was here</property>
    <property name="ignore_points">1</property>
    <property name="shotcut:caption">2020-11-19 14-30-52.mkv</property>
  </producer>
  <producer id="producer5" in="00:00:00.000" out="00:00:36.900">
    <property name="length">00:00:36.933</property>
    <property name="eof">pause</property>
    <property name="resource">/Users/pgrylls/University of Southampton/SoftCarp/data-analysis-and-visualisation/Videos/Day3/Clips/2020-11-19 14-33-18.mkv</property>
    <property name="audio_index">1</property>
    <property name="video_index">0</property>
    <property name="mute_on_pause">0</property>
    <property name="mlt_service">avformat-novalidate</property>
    <property name="seekable">1</property>
    <property name="aspect_ratio">1</property>
    <property name="creation_time">2020-11-19T14:33:57</property>
    <property name="shotcut:hash">46bf286c37d0a38f8544cf1898ec241e</property>
    <property name="global_feed">1</property>
    <property name="xml">was here</property>
    <property name="ignore_points">1</property>
    <property name="shotcut:caption">2020-11-19 14-33-18.mkv</property>
  </producer>
  <playlist id="main_bin" title="Shotcut version 20.10.31">
    <property name="shotcut:projectAudioChannels">2</property>
    <property name="shotcut:projectFolder">0</property>
    <property name="xml_retain">1</property>
    <entry producer="producer0" in="00:00:00.000" out="00:00:21.567"/>
    <entry producer="producer1" in="00:00:00.000" out="00:00:29.233"/>
    <entry producer="producer2" in="00:00:00.000" out="00:00:33.567"/>
    <entry producer="producer3" in="00:00:00.000" out="00:00:15.233"/>
    <entry producer="producer4" in="00:00:00.000" out="00:00:36.633"/>
    <entry producer="producer5" in="00:00:00.000" out="00:00:36.900"/>
  </playlist>
  <producer id="black" in="00:00:00.000" out="00:02:43.133">
    <property name="length">00:02:43.167</property>
    <property name="eof">pause</property>
    <property name="resource">0</property>
    <property name="aspect_ratio">1</property>
    <property name="mlt_service">color</property>
    <property name="mlt_image_format">rgb24a</property>
    <property name="set.test_audio">0</property>
  </producer>
  <playlist id="background">
    <entry producer="black" in="00:00:00.000" out="00:02:43.133"/>
  </playlist>
  <producer id="producer6" in="00:00:00.000" out="00:00:21.567">
    <property name="length">00:00:21.600</property>
    <property name="eof">pause</property>
    <property name="resource">/Users/pgrylls/University of Southampton/SoftCarp/data-analysis-and-visualisation/Videos/Day3/Clips/2020-11-19 14-27-07.mkv</property>
    <property name="audio_index">1</property>
    <property name="video_index">0</property>
    <property name="mute_on_pause">0</property>
    <property name="mlt_service">avformat-novalidate</property>
    <property name="seekable">1</property>
    <property name="aspect_ratio">1</property>
    <property name="creation_time">2020-11-19T14:27:30</property>
    <property name="shotcut:hash">fa81031dd44350e611838af5acdd0b2a</property>
    <property name="global_feed">1</property>
    <property name="xml">was here</property>
    <property name="ignore_points">0</property>
    <property name="shotcut:caption">2020-11-19 14-27-07.mkv</property>
    <filter id="filter0" out="00:00:06.100">
      <property name="argument"></property>
      <property name="geometry">311 625 969 95 1</property>
      <property name="family">Sans</property>
      <property name="size">48</property>
      <property name="weight">400</property>
      <property name="style">normal</property>
      <property name="fgcolour">0x000000ff</property>
      <property name="bgcolour">#00000000</property>
      <property name="olcolour">0x00000000</property>
      <property name="pad">0</property>
      <property name="halign">left</property>
      <property name="valign">top</property>
      <property name="outline">0</property>
      <property name="pixel_ratio">1</property>
      <property name="mlt_service">qtext</property>
      <property name="shotcut:filter">richText</property>
      <property name="html">&lt;!DOCTYPE HTML PUBLIC &quot;-//W3C//DTD HTML 4.0//EN&quot; &quot;http://www.w3.org/TR/REC-html40/strict.dtd&quot;&gt;
&lt;html&gt;&lt;head&gt;&lt;meta name=&quot;qrichtext&quot; content=&quot;1&quot; /&gt;&lt;style type=&quot;text/css&quot;&gt;
p, li { white-space: pre-wrap; }
&lt;/style&gt;&lt;/head&gt;&lt;body style=&quot; font-family:'.AppleSystemUIFont'; font-size:13pt; font-weight:400; font-style:normal;&quot;&gt;
&lt;p align=&quot;center&quot; style=&quot; margin-top:0px; margin-bottom:0px; margin-left:0px; margin-right:0px; -qt-block-indent:0; text-indent:0px;&quot;&gt;&lt;span style=&quot; font-family:'sans-serif'; font-size:32pt; font-weight:600; color:#ffffff;&quot;&gt;Hello and welcome to the third and final day of data analysis and visualisation in R.&lt;/span&gt;&lt;/p&gt;
&lt;p align=&quot;center&quot; style=&quot;-qt-paragraph-type:empty; margin-top:0px; margin-bottom:0px; margin-left:0px; margin-right:0px; -qt-block-indent:0; text-indent:0px; font-family:'sans-serif'; font-size:32pt; font-weight:600; color:#ffffff;&quot;&gt;&lt;br /&gt;&lt;/p&gt;&lt;/body&gt;&lt;/html&gt;</property>
      <property name="shotcut:animIn">00:00:00.000</property>
      <property name="shotcut:animOut">00:00:00.000</property>
    </filter>
  </producer>
  <producer id="producer7" in="00:00:00.000" out="00:00:21.567">
    <property name="length">00:00:21.600</property>
    <property name="eof">pause</property>
    <property name="resource">/Users/pgrylls/University of Southampton/SoftCarp/data-analysis-and-visualisation/Videos/Day3/Clips/2020-11-19 14-27-07.mkv</property>
    <property name="audio_index">1</property>
    <property name="video_index">0</property>
    <property name="mute_on_pause">0</property>
    <property name="mlt_service">avformat-novalidate</property>
    <property name="seekable">1</property>
    <property name="aspect_ratio">1</property>
    <property name="creation_time">2020-11-19T14:27:30</property>
    <property name="shotcut:hash">fa81031dd44350e611838af5acdd0b2a</property>
    <property name="global_feed">1</property>
    <property name="xml">was here</property>
    <property name="ignore_points">0</property>
    <property name="shotcut:caption">2020-11-19 14-27-07.mkv</property>
    <filter id="filter1" in="00:00:06.133" out="00:00:16.067">
      <property name="argument"></property>
      <property name="geometry">311 625 969 95 1</property>
      <property name="family">Sans</property>
      <property name="size">48</property>
      <property name="weight">400</property>
      <property name="style">normal</property>
      <property name="fgcolour">0x000000ff</property>
      <property name="bgcolour">#00000000</property>
      <property name="olcolour">0x00000000</property>
      <property name="pad">0</property>
      <property name="halign">left</property>
      <property name="valign">top</property>
      <property name="outline">0</property>
      <property name="pixel_ratio">1</property>
      <property name="mlt_service">qtext</property>
      <property name="shotcut:filter">richText</property>
      <property name="html">&lt;!DOCTYPE HTML PUBLIC &quot;-//W3C//DTD HTML 4.0//EN&quot; &quot;http://www.w3.org/TR/REC-html40/strict.dtd&quot;&gt;
&lt;html&gt;&lt;head&gt;&lt;meta name=&quot;qrichtext&quot; content=&quot;1&quot; /&gt;&lt;style type=&quot;text/css&quot;&gt;
p, li { white-space: pre-wrap; }
&lt;/style&gt;&lt;/head&gt;&lt;body style=&quot; font-family:'.AppleSystemUIFont'; font-size:13pt; font-weight:400; font-style:normal;&quot;&gt;
&lt;p align=&quot;center&quot; style=&quot; margin-top:0px; margin-bottom:0px; margin-left:0px; margin-right:0px; -qt-block-indent:0; text-indent:0px;&quot;&gt;&lt;span style=&quot; font-family:'sans-serif'; font-size:32pt; font-weight:600; color:#ffffff;&quot;&gt;In the previous two lessons we introduced RStudio, R, objects, functions, data-frames, tidyr, and dplyr. &lt;/span&gt;&lt;/p&gt;
&lt;p align=&quot;center&quot; style=&quot;-qt-paragraph-type:empty; margin-top:0px; margin-bottom:0px; margin-left:0px; margin-right:0px; -qt-block-indent:0; text-indent:0px; font-family:'sans-serif'; font-size:32pt; font-weight:600; color:#ffffff;&quot;&gt;&lt;br /&gt;&lt;/p&gt;&lt;/body&gt;&lt;/html&gt;</property>
      <property name="shotcut:animIn">00:00:00.000</property>
      <property name="shotcut:animOut">00:00:00.000</property>
    </filter>
  </producer>
  <producer id="producer8" in="00:00:00.000" out="00:00:21.567">
    <property name="length">00:00:21.600</property>
    <property name="eof">pause</property>
    <property name="resource">/Users/pgrylls/University of Southampton/SoftCarp/data-analysis-and-visualisation/Videos/Day3/Clips/2020-11-19 14-27-07.mkv</property>
    <property name="audio_index">1</property>
    <property name="video_index">0</property>
    <property name="mute_on_pause">0</property>
    <property name="mlt_service">avformat-novalidate</property>
    <property name="seekable">1</property>
    <property name="aspect_ratio">1</property>
    <property name="creation_time">2020-11-19T14:27:30</property>
    <property name="shotcut:hash">fa81031dd44350e611838af5acdd0b2a</property>
    <property name="global_feed">1</property>
    <property name="xml">was here</property>
    <property name="ignore_points">0</property>
    <property name="shotcut:caption">2020-11-19 14-27-07.mkv</property>
    <filter id="filter2" in="00:00:16.100" out="00:00:21.567">
      <property name="argument"></property>
      <property name="geometry">311 625 969 95 1</property>
      <property name="family">Sans</property>
      <property name="size">48</property>
      <property name="weight">400</property>
      <property name="style">normal</property>
      <property name="fgcolour">0x000000ff</property>
      <property name="bgcolour">#00000000</property>
      <property name="olcolour">0x00000000</property>
      <property name="pad">0</property>
      <property name="halign">left</property>
      <property name="valign">top</property>
      <property name="outline">0</property>
      <property name="pixel_ratio">1</property>
      <property name="mlt_service">qtext</property>
      <property name="shotcut:filter">richText</property>
      <property name="html">&lt;!DOCTYPE HTML PUBLIC &quot;-//W3C//DTD HTML 4.0//EN&quot; &quot;http://www.w3.org/TR/REC-html40/strict.dtd&quot;&gt;
&lt;html&gt;&lt;head&gt;&lt;meta name=&quot;qrichtext&quot; content=&quot;1&quot; /&gt;&lt;style type=&quot;text/css&quot;&gt;
p, li { white-space: pre-wrap; }
&lt;/style&gt;&lt;/head&gt;&lt;body style=&quot; font-family:'.AppleSystemUIFont'; font-size:13pt; font-weight:400; font-style:normal;&quot;&gt;
&lt;p align=&quot;center&quot; style=&quot; margin-top:0px; margin-bottom:0px; margin-left:0px; margin-right:0px; -qt-block-indent:0; text-indent:0px;&quot;&gt;&lt;span style=&quot; font-family:'sans-serif'; font-size:32pt; font-weight:600; color:#ffffff;&quot;&gt;Today we are going to look at another tidyverse package ggplot2.  &lt;/span&gt;&lt;/p&gt;
&lt;p align=&quot;center&quot; style=&quot;-qt-paragraph-type:empty; margin-top:0px; margin-bottom:0px; margin-left:0px; margin-right:0px; -qt-block-indent:0; text-indent:0px; font-family:'sans-serif'; font-size:32pt; font-weight:600; color:#ffffff;&quot;&gt;&lt;br /&gt;&lt;/p&gt;&lt;/body&gt;&lt;/html&gt;</property>
      <property name="shotcut:animIn">00:00:00.000</property>
      <property name="shotcut:animOut">00:00:00.000</property>
    </filter>
  </producer>
  <producer id="producer9" in="00:00:00.000" out="00:00:29.233">
    <property name="length">00:00:29.267</property>
    <property name="eof">pause</property>
    <property name="resource">/Users/pgrylls/University of Southampton/SoftCarp/data-analysis-and-visualisation/Videos/Day3/Clips/2020-11-19 14-27-49.mkv</property>
    <property name="audio_index">1</property>
    <property name="video_index">0</property>
    <property name="mute_on_pause">0</property>
    <property name="mlt_service">avformat-novalidate</property>
    <property name="seekable">1</property>
    <property name="aspect_ratio">1</property>
    <property name="creation_time">2020-11-19T14:28:19</property>
    <property name="shotcut:hash">9ae2870b156c5809f51049dba7f95370</property>
    <property name="global_feed">1</property>
    <property name="xml">was here</property>
    <property name="ignore_points">0</property>
    <property name="shotcut:caption">2020-11-19 14-27-49.mkv</property>
    <filter id="filter3" in="00:00:01.167" out="00:00:06.367">
      <property name="argument"></property>
      <property name="geometry">311 625 969 95 1</property>
      <property name="family">Sans</property>
      <property name="size">48</property>
      <property name="weight">400</property>
      <property name="style">normal</property>
      <property name="fgcolour">0x000000ff</property>
      <property name="bgcolour">#00000000</property>
      <property name="olcolour">0x00000000</property>
      <property name="pad">0</property>
      <property name="halign">left</property>
      <property name="valign">top</property>
      <property name="outline">0</property>
      <property name="pixel_ratio">1</property>
      <property name="mlt_service">qtext</property>
      <property name="shotcut:filter">richText</property>
      <property name="html">&lt;!DOCTYPE HTML PUBLIC &quot;-//W3C//DTD HTML 4.0//EN&quot; &quot;http://www.w3.org/TR/REC-html40/strict.dtd&quot;&gt;
&lt;html&gt;&lt;head&gt;&lt;meta name=&quot;qrichtext&quot; content=&quot;1&quot; /&gt;&lt;style type=&quot;text/css&quot;&gt;
p, li { white-space: pre-wrap; }
&lt;/style&gt;&lt;/head&gt;&lt;body style=&quot; font-family:'.AppleSystemUIFont'; font-size:13pt; font-weight:400; font-style:normal;&quot;&gt;
&lt;p align=&quot;center&quot; style=&quot; margin-top:0px; margin-bottom:0px; margin-left:0px; margin-right:0px; -qt-block-indent:0; text-indent:0px;&quot;&gt;&lt;span style=&quot; font-family:'sans-serif'; font-size:32pt; font-weight:600; color:#ffffff;&quot;&gt;This lesson will gradually build up skills making plots using ggplot2. &lt;/span&gt;&lt;/p&gt;
&lt;p align=&quot;center&quot; style=&quot;-qt-paragraph-type:empty; margin-top:0px; margin-bottom:0px; margin-left:0px; margin-right:0px; -qt-block-indent:0; text-indent:0px; font-family:'sans-serif'; font-size:32pt; font-weight:600; color:#ffffff;&quot;&gt;&lt;br /&gt;&lt;/p&gt;&lt;/body&gt;&lt;/html&gt;</property>
      <property name="shotcut:animIn">00:00:00.000</property>
      <property name="shotcut:animOut">00:00:00.000</property>
    </filter>
  </producer>
  <producer id="producer10" in="00:00:00.000" out="00:00:29.233">
    <property name="length">00:00:29.267</property>
    <property name="eof">pause</property>
    <property name="resource">/Users/pgrylls/University of Southampton/SoftCarp/data-analysis-and-visualisation/Videos/Day3/Clips/2020-11-19 14-27-49.mkv</property>
    <property name="audio_index">1</property>
    <property name="video_index">0</property>
    <property name="mute_on_pause">0</property>
    <property name="mlt_service">avformat-novalidate</property>
    <property name="seekable">1</property>
    <property name="aspect_ratio">1</property>
    <property name="creation_time">2020-11-19T14:28:19</property>
    <property name="shotcut:hash">9ae2870b156c5809f51049dba7f95370</property>
    <property name="global_feed">1</property>
    <property name="xml">was here</property>
    <property name="ignore_points">0</property>
    <property name="shotcut:caption">2020-11-19 14-27-49.mkv</property>
    <filter id="filter4" in="00:00:06.400" out="00:00:11.700">
      <property name="argument"></property>
      <property name="geometry">311 625 969 95 1</property>
      <property name="family">Sans</property>
      <property name="size">48</property>
      <property name="weight">400</property>
      <property name="style">normal</property>
      <property name="fgcolour">0x000000ff</property>
      <property name="bgcolour">#00000000</property>
      <property name="olcolour">0x00000000</property>
      <property name="pad">0</property>
      <property name="halign">left</property>
      <property name="valign">top</property>
      <property name="outline">0</property>
      <property name="pixel_ratio">1</property>
      <property name="mlt_service">qtext</property>
      <property name="shotcut:filter">richText</property>
      <property name="html">&lt;!DOCTYPE HTML PUBLIC &quot;-//W3C//DTD HTML 4.0//EN&quot; &quot;http://www.w3.org/TR/REC-html40/strict.dtd&quot;&gt;
&lt;html&gt;&lt;head&gt;&lt;meta name=&quot;qrichtext&quot; content=&quot;1&quot; /&gt;&lt;style type=&quot;text/css&quot;&gt;
p, li { white-space: pre-wrap; }
&lt;/style&gt;&lt;/head&gt;&lt;body style=&quot; font-family:'.AppleSystemUIFont'; font-size:13pt; font-weight:400; font-style:normal;&quot;&gt;
&lt;p align=&quot;center&quot; style=&quot; margin-top:0px; margin-bottom:0px; margin-left:0px; margin-right:0px; -qt-block-indent:0; text-indent:0px;&quot;&gt;&lt;span style=&quot; font-family:'sans-serif'; font-size:32pt; font-weight:600; color:#ffffff;&quot;&gt;We will introduce you to making scatterplots, boxplots and time series plots.&lt;/span&gt;&lt;/p&gt;
&lt;p align=&quot;center&quot; style=&quot;-qt-paragraph-type:empty; margin-top:0px; margin-bottom:0px; margin-left:0px; margin-right:0px; -qt-block-indent:0; text-indent:0px; font-family:'sans-serif'; font-size:32pt; font-weight:600; color:#ffffff;&quot;&gt;&lt;br /&gt;&lt;/p&gt;&lt;/body&gt;&lt;/html&gt;</property>
      <property name="shotcut:animIn">00:00:00.000</property>
      <property name="shotcut:animOut">00:00:00.000</property>
    </filter>
  </producer>
  <producer id="producer11" in="00:00:00.000" out="00:00:29.233">
    <property name="length">00:00:29.267</property>
    <property name="eof">pause</property>
    <property name="resource">/Users/pgrylls/University of Southampton/SoftCarp/data-analysis-and-visualisation/Videos/Day3/Clips/2020-11-19 14-27-49.mkv</property>
    <property name="audio_index">1</property>
    <property name="video_index">0</property>
    <property name="mute_on_pause">0</property>
    <property name="mlt_service">avformat-novalidate</property>
    <property name="seekable">1</property>
    <property name="aspect_ratio">1</property>
    <property name="creation_time">2020-11-19T14:28:19</property>
    <property name="shotcut:hash">9ae2870b156c5809f51049dba7f95370</property>
    <property name="global_feed">1</property>
    <property name="xml">was here</property>
    <property name="ignore_points">0</property>
    <property name="shotcut:caption">2020-11-19 14-27-49.mkv</property>
    <filter id="filter5" in="00:00:11.733" out="00:00:16.200">
      <property name="argument"></property>
      <property name="geometry">311 625 969 95 1</property>
      <property name="family">Sans</property>
      <property name="size">48</property>
      <property name="weight">400</property>
      <property name="style">normal</property>
      <property name="fgcolour">0x000000ff</property>
      <property name="bgcolour">#00000000</property>
      <property name="olcolour">0x00000000</property>
      <property name="pad">0</property>
      <property name="halign">left</property>
      <property name="valign">top</property>
      <property name="outline">0</property>
      <property name="pixel_ratio">1</property>
      <property name="mlt_service">qtext</property>
      <property name="shotcut:filter">richText</property>
      <property name="html">&lt;!DOCTYPE HTML PUBLIC &quot;-//W3C//DTD HTML 4.0//EN&quot; &quot;http://www.w3.org/TR/REC-html40/strict.dtd&quot;&gt;
&lt;html&gt;&lt;head&gt;&lt;meta name=&quot;qrichtext&quot; content=&quot;1&quot; /&gt;&lt;style type=&quot;text/css&quot;&gt;
p, li { white-space: pre-wrap; }
&lt;/style&gt;&lt;/head&gt;&lt;body style=&quot; font-family:'.AppleSystemUIFont'; font-size:13pt; font-weight:400; font-style:normal;&quot;&gt;
&lt;p align=&quot;center&quot; style=&quot; margin-top:0px; margin-bottom:0px; margin-left:0px; margin-right:0px; -qt-block-indent:0; text-indent:0px;&quot;&gt;&lt;span style=&quot; font-family:'sans-serif'; font-size:32pt; font-weight:600; color:#ffffff;&quot;&gt;Look at how we can set universal plotting parameters&lt;/span&gt;&lt;/p&gt;&lt;/body&gt;&lt;/html&gt;</property>
      <property name="shotcut:animIn">00:00:00.000</property>
      <property name="shotcut:animOut">00:00:00.000</property>
    </filter>
  </producer>
  <producer id="producer12" in="00:00:00.000" out="00:00:29.233">
    <property name="length">00:00:29.267</property>
    <property name="eof">pause</property>
    <property name="resource">/Users/pgrylls/University of Southampton/SoftCarp/data-analysis-and-visualisation/Videos/Day3/Clips/2020-11-19 14-27-49.mkv</property>
    <property name="audio_index">1</property>
    <property name="video_index">0</property>
    <property name="mute_on_pause">0</property>
    <property name="mlt_service">avformat-novalidate</property>
    <property name="seekable">1</property>
    <property name="aspect_ratio">1</property>
    <property name="creation_time">2020-11-19T14:28:19</property>
    <property name="shotcut:hash">9ae2870b156c5809f51049dba7f95370</property>
    <property name="global_feed">1</property>
    <property name="xml">was here</property>
    <property name="ignore_points">0</property>
    <property name="shotcut:caption">2020-11-19 14-27-49.mkv</property>
    <filter id="filter6" in="00:00:16.233" out="00:00:19.733">
      <property name="argument"></property>
      <property name="geometry">311 625 969 95 1</property>
      <property name="family">Sans</property>
      <property name="size">48</property>
      <property name="weight">400</property>
      <property name="style">normal</property>
      <property name="fgcolour">0x000000ff</property>
      <property name="bgcolour">#00000000</property>
      <property name="olcolour">0x00000000</property>
      <property name="pad">0</property>
      <property name="halign">left</property>
      <property name="valign">top</property>
      <property name="outline">0</property>
      <property name="pixel_ratio">1</property>
      <property name="mlt_service">qtext</property>
      <property name="shotcut:filter">richText</property>
      <property name="html">&lt;!DOCTYPE HTML PUBLIC &quot;-//W3C//DTD HTML 4.0//EN&quot; &quot;http://www.w3.org/TR/REC-html40/strict.dtd&quot;&gt;
&lt;html&gt;&lt;head&gt;&lt;meta name=&quot;qrichtext&quot; content=&quot;1&quot; /&gt;&lt;style type=&quot;text/css&quot;&gt;
p, li { white-space: pre-wrap; }
&lt;/style&gt;&lt;/head&gt;&lt;body style=&quot; font-family:'.AppleSystemUIFont'; font-size:13pt; font-weight:400; font-style:normal;&quot;&gt;
&lt;p align=&quot;center&quot; style=&quot; margin-top:0px; margin-bottom:0px; margin-left:0px; margin-right:0px; -qt-block-indent:0; text-indent:0px;&quot;&gt;&lt;span style=&quot; font-family:'sans-serif'; font-size:32pt; font-weight:600; color:#ffffff;&quot;&gt;You will see how to make multi panel plots using faceting.&lt;/span&gt;&lt;/p&gt;
&lt;p align=&quot;center&quot; style=&quot;-qt-paragraph-type:empty; margin-top:0px; margin-bottom:0px; margin-left:0px; margin-right:0px; -qt-block-indent:0; text-indent:0px; font-family:'sans-serif'; font-size:32pt; font-weight:600; color:#ffffff;&quot;&gt;&lt;br /&gt;&lt;/p&gt;&lt;/body&gt;&lt;/html&gt;</property>
      <property name="shotcut:animIn">00:00:00.000</property>
      <property name="shotcut:animOut">00:00:00.000</property>
    </filter>
  </producer>
  <producer id="producer13" in="00:00:00.000" out="00:00:29.233">
    <property name="length">00:00:29.267</property>
    <property name="eof">pause</property>
    <property name="resource">/Users/pgrylls/University of Southampton/SoftCarp/data-analysis-and-visualisation/Videos/Day3/Clips/2020-11-19 14-27-49.mkv</property>
    <property name="audio_index">1</property>
    <property name="video_index">0</property>
    <property name="mute_on_pause">0</property>
    <property name="mlt_service">avformat-novalidate</property>
    <property name="seekable">1</property>
    <property name="aspect_ratio">1</property>
    <property name="creation_time">2020-11-19T14:28:19</property>
    <property name="shotcut:hash">9ae2870b156c5809f51049dba7f95370</property>
    <property name="global_feed">1</property>
    <property name="xml">was here</property>
    <property name="ignore_points">0</property>
    <property name="shotcut:caption">2020-11-19 14-27-49.mkv</property>
    <filter id="filter7" in="00:00:19.767" out="00:00:24.100">
      <property name="argument"></property>
      <property name="geometry">311 625 969 95 1</property>
      <property name="family">Sans</property>
      <property name="size">48</property>
      <property name="weight">400</property>
      <property name="style">normal</property>
      <property name="fgcolour">0x000000ff</property>
      <property name="bgcolour">#00000000</property>
      <property name="olcolour">0x00000000</property>
      <property name="pad">0</property>
      <property name="halign">left</property>
      <property name="valign">top</property>
      <property name="outline">0</property>
      <property name="pixel_ratio">1</property>
      <property name="mlt_service">qtext</property>
      <property name="shotcut:filter">richText</property>
      <property name="html">&lt;!DOCTYPE HTML PUBLIC &quot;-//W3C//DTD HTML 4.0//EN&quot; &quot;http://www.w3.org/TR/REC-html40/strict.dtd&quot;&gt;
&lt;html&gt;&lt;head&gt;&lt;meta name=&quot;qrichtext&quot; content=&quot;1&quot; /&gt;&lt;style type=&quot;text/css&quot;&gt;
p, li { white-space: pre-wrap; }
&lt;/style&gt;&lt;/head&gt;&lt;body style=&quot; font-family:'.AppleSystemUIFont'; font-size:13pt; font-weight:400; font-style:normal;&quot;&gt;
&lt;p align=&quot;center&quot; style=&quot; margin-top:0px; margin-bottom:0px; margin-left:0px; margin-right:0px; -qt-block-indent:0; text-indent:0px;&quot;&gt;&lt;span style=&quot; font-family:'sans-serif'; font-size:32pt; font-weight:600; color:#ffffff;&quot;&gt;We will modify existing plots to alter styles and highlight features.&lt;/span&gt;&lt;/p&gt;
&lt;p align=&quot;center&quot; style=&quot;-qt-paragraph-type:empty; margin-top:0px; margin-bottom:0px; margin-left:0px; margin-right:0px; -qt-block-indent:0; text-indent:0px; font-family:'sans-serif'; font-size:32pt; font-weight:600; color:#ffffff;&quot;&gt;&lt;br /&gt;&lt;/p&gt;&lt;/body&gt;&lt;/html&gt;</property>
      <property name="shotcut:animIn">00:00:00.000</property>
      <property name="shotcut:animOut">00:00:00.000</property>
    </filter>
  </producer>
  <producer id="producer14" in="00:00:00.000" out="00:00:29.233">
    <property name="length">00:00:29.267</property>
    <property name="eof">pause</property>
    <property name="resource">/Users/pgrylls/University of Southampton/SoftCarp/data-analysis-and-visualisation/Videos/Day3/Clips/2020-11-19 14-27-49.mkv</property>
    <property name="audio_index">1</property>
    <property name="video_index">0</property>
    <property name="mute_on_pause">0</property>
    <property name="mlt_service">avformat-novalidate</property>
    <property name="seekable">1</property>
    <property name="aspect_ratio">1</property>
    <property name="creation_time">2020-11-19T14:28:19</property>
    <property name="shotcut:hash">9ae2870b156c5809f51049dba7f95370</property>
    <property name="global_feed">1</property>
    <property name="xml">was here</property>
    <property name="ignore_points">0</property>
    <property name="shotcut:caption">2020-11-19 14-27-49.mkv</property>
    <filter id="filter8" in="00:00:24.133" out="00:00:28.233">
      <property name="argument"></property>
      <property name="geometry">311 625 969 95 1</property>
      <property name="family">Sans</property>
      <property name="size">48</property>
      <property name="weight">400</property>
      <property name="style">normal</property>
      <property name="fgcolour">0x000000ff</property>
      <property name="bgcolour">#00000000</property>
      <property name="olcolour">0x00000000</property>
      <property name="pad">0</property>
      <property name="halign">left</property>
      <property name="valign">top</property>
      <property name="outline">0</property>
      <property name="pixel_ratio">1</property>
      <property name="mlt_service">qtext</property>
      <property name="shotcut:filter">richText</property>
      <property name="html">&lt;!DOCTYPE HTML PUBLIC &quot;-//W3C//DTD HTML 4.0//EN&quot; &quot;http://www.w3.org/TR/REC-html40/strict.dtd&quot;&gt;
&lt;html&gt;&lt;head&gt;&lt;meta name=&quot;qrichtext&quot; content=&quot;1&quot; /&gt;&lt;style type=&quot;text/css&quot;&gt;
p, li { white-space: pre-wrap; }
&lt;/style&gt;&lt;/head&gt;&lt;body style=&quot; font-family:'.AppleSystemUIFont'; font-size:13pt; font-weight:400; font-style:normal;&quot;&gt;
&lt;p align=&quot;center&quot; style=&quot; margin-top:0px; margin-bottom:0px; margin-left:0px; margin-right:0px; -qt-block-indent:0; text-indent:0px;&quot;&gt;&lt;span style=&quot; font-family:'sans-serif'; font-size:32pt; font-weight:600; color:#ffffff;&quot;&gt;Finally you will put this all together to make good looking descriptive plots!&lt;/span&gt;&lt;/p&gt;&lt;/body&gt;&lt;/html&gt;</property>
      <property name="shotcut:animIn">00:00:00.000</property>
      <property name="shotcut:animOut">00:00:00.000</property>
    </filter>
  </producer>
  <producer id="producer15" in="00:00:00.000" out="00:00:33.567">
    <property name="length">00:00:33.600</property>
    <property name="eof">pause</property>
    <property name="resource">/Users/pgrylls/University of Southampton/SoftCarp/data-analysis-and-visualisation/Videos/Day3/Clips/2020-11-19 14-28-53.mkv</property>
    <property name="audio_index">1</property>
    <property name="video_index">0</property>
    <property name="mute_on_pause">0</property>
    <property name="mlt_service">avformat-novalidate</property>
    <property name="seekable">1</property>
    <property name="aspect_ratio">1</property>
    <property name="creation_time">2020-11-19T14:29:28</property>
    <property name="shotcut:hash">e869010384b9caeccdef663fd61596f7</property>
    <property name="global_feed">1</property>
    <property name="xml">was here</property>
    <property name="ignore_points">0</property>
    <property name="shotcut:caption">2020-11-19 14-28-53.mkv</property>
    <filter id="filter9" in="00:00:00.733" out="00:00:05.233">
      <property name="argument"></property>
      <property name="geometry">311 625 969 95 1</property>
      <property name="family">Sans</property>
      <property name="size">48</property>
      <property name="weight">400</property>
      <property name="style">normal</property>
      <property name="fgcolour">0x000000ff</property>
      <property name="bgcolour">#00000000</property>
      <property name="olcolour">0x00000000</property>
      <property name="pad">0</property>
      <property name="halign">left</property>
      <property name="valign">top</property>
      <property name="outline">0</property>
      <property name="pixel_ratio">1</property>
      <property name="mlt_service">qtext</property>
      <property name="shotcut:filter">richText</property>
      <property name="html">&lt;!DOCTYPE HTML PUBLIC &quot;-//W3C//DTD HTML 4.0//EN&quot; &quot;http://www.w3.org/TR/REC-html40/strict.dtd&quot;&gt;
&lt;html&gt;&lt;head&gt;&lt;meta name=&quot;qrichtext&quot; content=&quot;1&quot; /&gt;&lt;style type=&quot;text/css&quot;&gt;
p, li { white-space: pre-wrap; }
&lt;/style&gt;&lt;/head&gt;&lt;body style=&quot; font-family:'.AppleSystemUIFont'; font-size:13pt; font-weight:400; font-style:normal;&quot;&gt;
&lt;p align=&quot;center&quot; style=&quot; margin-top:0px; margin-bottom:0px; margin-left:0px; margin-right:0px; -qt-block-indent:0; text-indent:0px;&quot;&gt;&lt;span style=&quot; font-family:'sans-serif'; font-size:32pt; font-weight:600; color:#ffffff;&quot;&gt;ggplot2 is another package contained within tidyverse&lt;/span&gt;&lt;/p&gt;&lt;/body&gt;&lt;/html&gt;</property>
      <property name="shotcut:animIn">00:00:00.000</property>
      <property name="shotcut:animOut">00:00:00.000</property>
    </filter>
  </producer>
  <producer id="producer16" in="00:00:00.000" out="00:00:33.567">
    <property name="length">00:00:33.600</property>
    <property name="eof">pause</property>
    <property name="resource">/Users/pgrylls/University of Southampton/SoftCarp/data-analysis-and-visualisation/Videos/Day3/Clips/2020-11-19 14-28-53.mkv</property>
    <property name="audio_index">1</property>
    <property name="video_index">0</property>
    <property name="mute_on_pause">0</property>
    <property name="mlt_service">avformat-novalidate</property>
    <property name="seekable">1</property>
    <property name="aspect_ratio">1</property>
    <property name="creation_time">2020-11-19T14:29:28</property>
    <property name="shotcut:hash">e869010384b9caeccdef663fd61596f7</property>
    <property name="global_feed">1</property>
    <property name="xml">was here</property>
    <property name="ignore_points">0</property>
    <property name="shotcut:caption">2020-11-19 14-28-53.mkv</property>
    <filter id="filter10" in="00:00:05.267" out="00:00:08.867">
      <property name="argument"></property>
      <property name="geometry">311 625 969 95 1</property>
      <property name="family">Sans</property>
      <property name="size">48</property>
      <property name="weight">400</property>
      <property name="style">normal</property>
      <property name="fgcolour">0x000000ff</property>
      <property name="bgcolour">#00000000</property>
      <property name="olcolour">0x00000000</property>
      <property name="pad">0</property>
      <property name="halign">left</property>
      <property name="valign">top</property>
      <property name="outline">0</property>
      <property name="pixel_ratio">1</property>
      <property name="mlt_service">qtext</property>
      <property name="shotcut:filter">richText</property>
      <property name="html">&lt;!DOCTYPE HTML PUBLIC &quot;-//W3C//DTD HTML 4.0//EN&quot; &quot;http://www.w3.org/TR/REC-html40/strict.dtd&quot;&gt;
&lt;html&gt;&lt;head&gt;&lt;meta name=&quot;qrichtext&quot; content=&quot;1&quot; /&gt;&lt;style type=&quot;text/css&quot;&gt;
p, li { white-space: pre-wrap; }
&lt;/style&gt;&lt;/head&gt;&lt;body style=&quot; font-family:'.AppleSystemUIFont'; font-size:13pt; font-weight:400; font-style:normal;&quot;&gt;
&lt;p align=&quot;center&quot; style=&quot; margin-top:0px; margin-bottom:0px; margin-left:0px; margin-right:0px; -qt-block-indent:0; text-indent:0px;&quot;&gt;&lt;span style=&quot; font-family:'sans-serif'; font-size:32pt; font-weight:600; color:#ffffff;&quot;&gt;This means all of the data wrangling you have been doing in lesson two &lt;/span&gt;&lt;/p&gt;
&lt;p align=&quot;center&quot; style=&quot;-qt-paragraph-type:empty; margin-top:0px; margin-bottom:0px; margin-left:0px; margin-right:0px; -qt-block-indent:0; text-indent:0px; font-family:'sans-serif'; font-size:32pt; font-weight:600; color:#ffffff;&quot;&gt;&lt;br /&gt;&lt;/p&gt;&lt;/body&gt;&lt;/html&gt;</property>
      <property name="shotcut:animIn">00:00:00.000</property>
      <property name="shotcut:animOut">00:00:00.000</property>
    </filter>
  </producer>
  <producer id="producer17" in="00:00:00.000" out="00:00:33.567">
    <property name="length">00:00:33.600</property>
    <property name="eof">pause</property>
    <property name="resource">/Users/pgrylls/University of Southampton/SoftCarp/data-analysis-and-visualisation/Videos/Day3/Clips/2020-11-19 14-28-53.mkv</property>
    <property name="audio_index">1</property>
    <property name="video_index">0</property>
    <property name="mute_on_pause">0</property>
    <property name="mlt_service">avformat-novalidate</property>
    <property name="seekable">1</property>
    <property name="aspect_ratio">1</property>
    <property name="creation_time">2020-11-19T14:29:28</property>
    <property name="shotcut:hash">e869010384b9caeccdef663fd61596f7</property>
    <property name="global_feed">1</property>
    <property name="xml">was here</property>
    <property name="ignore_points">0</property>
    <property name="shotcut:caption">2020-11-19 14-28-53.mkv</property>
    <filter id="filter11" in="00:00:08.900" out="00:00:13.100">
      <property name="argument"></property>
      <property name="geometry">311 625 969 95 1</property>
      <property name="family">Sans</property>
      <property name="size">48</property>
      <property name="weight">400</property>
      <property name="style">normal</property>
      <property name="fgcolour">0x000000ff</property>
      <property name="bgcolour">#00000000</property>
      <property name="olcolour">0x00000000</property>
      <property name="pad">0</property>
      <property name="halign">left</property>
      <property name="valign">top</property>
      <property name="outline">0</property>
      <property name="pixel_ratio">1</property>
      <property name="mlt_service">qtext</property>
      <property name="shotcut:filter">richText</property>
      <property name="html">&lt;!DOCTYPE HTML PUBLIC &quot;-//W3C//DTD HTML 4.0//EN&quot; &quot;http://www.w3.org/TR/REC-html40/strict.dtd&quot;&gt;
&lt;html&gt;&lt;head&gt;&lt;meta name=&quot;qrichtext&quot; content=&quot;1&quot; /&gt;&lt;style type=&quot;text/css&quot;&gt;
p, li { white-space: pre-wrap; }
&lt;/style&gt;&lt;/head&gt;&lt;body style=&quot; font-family:'.AppleSystemUIFont'; font-size:13pt; font-weight:400; font-style:normal;&quot;&gt;
&lt;p align=&quot;center&quot; style=&quot; margin-top:0px; margin-bottom:0px; margin-left:0px; margin-right:0px; -qt-block-indent:0; text-indent:0px;&quot;&gt;&lt;span style=&quot; font-family:'sans-serif'; font-size:32pt; font-weight:600; color:#ffffff;&quot;&gt;is all in the correct format to be used natively within ggplot2&lt;/span&gt;&lt;/p&gt;
&lt;p align=&quot;center&quot; style=&quot;-qt-paragraph-type:empty; margin-top:0px; margin-bottom:0px; margin-left:0px; margin-right:0px; -qt-block-indent:0; text-indent:0px; font-family:'sans-serif'; font-size:32pt; font-weight:600; color:#ffffff;&quot;&gt;&lt;br /&gt;&lt;/p&gt;&lt;/body&gt;&lt;/html&gt;</property>
      <property name="shotcut:animIn">00:00:00.000</property>
      <property name="shotcut:animOut">00:00:00.000</property>
    </filter>
  </producer>
  <producer id="producer18" in="00:00:00.000" out="00:00:33.567">
    <property name="length">00:00:33.600</property>
    <property name="eof">pause</property>
    <property name="resource">/Users/pgrylls/University of Southampton/SoftCarp/data-analysis-and-visualisation/Videos/Day3/Clips/2020-11-19 14-28-53.mkv</property>
    <property name="audio_index">1</property>
    <property name="video_index">0</property>
    <property name="mute_on_pause">0</property>
    <property name="mlt_service">avformat-novalidate</property>
    <property name="seekable">1</property>
    <property name="aspect_ratio">1</property>
    <property name="creation_time">2020-11-19T14:29:28</property>
    <property name="shotcut:hash">e869010384b9caeccdef663fd61596f7</property>
    <property name="global_feed">1</property>
    <property name="xml">was here</property>
    <property name="ignore_points">0</property>
    <property name="shotcut:caption">2020-11-19 14-28-53.mkv</property>
    <filter id="filter12" in="00:00:13.900" out="00:00:19.200">
      <property name="argument"></property>
      <property name="geometry">311 625 969 95 1</property>
      <property name="family">Sans</property>
      <property name="size">48</property>
      <property name="weight">400</property>
      <property name="style">normal</property>
      <property name="fgcolour">0x000000ff</property>
      <property name="bgcolour">#00000000</property>
      <property name="olcolour">0x00000000</property>
      <property name="pad">0</property>
      <property name="halign">left</property>
      <property name="valign">top</property>
      <property name="outline">0</property>
      <property name="pixel_ratio">1</property>
      <property name="mlt_service">qtext</property>
      <property name="shotcut:filter">richText</property>
      <property name="html">&lt;!DOCTYPE HTML PUBLIC &quot;-//W3C//DTD HTML 4.0//EN&quot; &quot;http://www.w3.org/TR/REC-html40/strict.dtd&quot;&gt;
&lt;html&gt;&lt;head&gt;&lt;meta name=&quot;qrichtext&quot; content=&quot;1&quot; /&gt;&lt;style type=&quot;text/css&quot;&gt;
p, li { white-space: pre-wrap; }
&lt;/style&gt;&lt;/head&gt;&lt;body style=&quot; font-family:'.AppleSystemUIFont'; font-size:13pt; font-weight:400; font-style:normal;&quot;&gt;
&lt;p align=&quot;center&quot; style=&quot; margin-top:0px; margin-bottom:0px; margin-left:0px; margin-right:0px; -qt-block-indent:0; text-indent:0px;&quot;&gt;&lt;span style=&quot; font-family:'sans-serif'; font-size:32pt; font-weight:600; color:#ffffff;&quot;&gt;The three plots shown are the basic versions of the plots you are going to be making and enriching today&lt;/span&gt;&lt;/p&gt;&lt;/body&gt;&lt;/html&gt;</property>
      <property name="shotcut:animIn">00:00:00.000</property>
      <property name="shotcut:animOut">00:00:00.000</property>
    </filter>
  </producer>
  <producer id="producer19" in="00:00:00.000" out="00:00:33.567">
    <property name="length">00:00:33.600</property>
    <property name="eof">pause</property>
    <property name="resource">/Users/pgrylls/University of Southampton/SoftCarp/data-analysis-and-visualisation/Videos/Day3/Clips/2020-11-19 14-28-53.mkv</property>
    <property name="audio_index">1</property>
    <property name="video_index">0</property>
    <property name="mute_on_pause">0</property>
    <property name="mlt_service">avformat-novalidate</property>
    <property name="seekable">1</property>
    <property name="aspect_ratio">1</property>
    <property name="creation_time">2020-11-19T14:29:28</property>
    <property name="shotcut:hash">e869010384b9caeccdef663fd61596f7</property>
    <property name="global_feed">1</property>
    <property name="xml">was here</property>
    <property name="ignore_points">0</property>
    <property name="shotcut:caption">2020-11-19 14-28-53.mkv</property>
    <filter id="filter13" in="00:00:19.233" out="00:00:24.400">
      <property name="argument"></property>
      <property name="geometry">311 625 969 95 1</property>
      <property name="family">Sans</property>
      <property name="size">48</property>
      <property name="weight">400</property>
      <property name="style">normal</property>
      <property name="fgcolour">0x000000ff</property>
      <property name="bgcolour">#00000000</property>
      <property name="olcolour">0x00000000</property>
      <property name="pad">0</property>
      <property name="halign">left</property>
      <property name="valign">top</property>
      <property name="outline">0</property>
      <property name="pixel_ratio">1</property>
      <property name="mlt_service">qtext</property>
      <property name="shotcut:filter">richText</property>
      <property name="html">&lt;!DOCTYPE HTML PUBLIC &quot;-//W3C//DTD HTML 4.0//EN&quot; &quot;http://www.w3.org/TR/REC-html40/strict.dtd&quot;&gt;
&lt;html&gt;&lt;head&gt;&lt;meta name=&quot;qrichtext&quot; content=&quot;1&quot; /&gt;&lt;style type=&quot;text/css&quot;&gt;
p, li { white-space: pre-wrap; }
&lt;/style&gt;&lt;/head&gt;&lt;body style=&quot; font-family:'.AppleSystemUIFont'; font-size:13pt; font-weight:400; font-style:normal;&quot;&gt;
&lt;p align=&quot;center&quot; style=&quot; margin-top:0px; margin-bottom:0px; margin-left:0px; margin-right:0px; -qt-block-indent:0; text-indent:0px;&quot;&gt;&lt;span style=&quot; font-family:'sans-serif'; font-size:32pt; font-weight:600; color:#ffffff;&quot;&gt;they are not an exhaustive list of what ggplot2 can do but once you have learnt how to work with a few things&lt;/span&gt;&lt;/p&gt;
&lt;p align=&quot;center&quot; style=&quot;-qt-paragraph-type:empty; margin-top:0px; margin-bottom:0px; margin-left:0px; margin-right:0px; -qt-block-indent:0; text-indent:0px; font-family:'sans-serif'; font-size:32pt; font-weight:600; color:#ffffff;&quot;&gt;&lt;br /&gt;&lt;/p&gt;&lt;/body&gt;&lt;/html&gt;</property>
      <property name="shotcut:animIn">00:00:00.000</property>
      <property name="shotcut:animOut">00:00:00.000</property>
    </filter>
  </producer>
  <producer id="producer20" in="00:00:00.000" out="00:00:33.567">
    <property name="length">00:00:33.600</property>
    <property name="eof">pause</property>
    <property name="resource">/Users/pgrylls/University of Southampton/SoftCarp/data-analysis-and-visualisation/Videos/Day3/Clips/2020-11-19 14-28-53.mkv</property>
    <property name="audio_index">1</property>
    <property name="video_index">0</property>
    <property name="mute_on_pause">0</property>
    <property name="mlt_service">avformat-novalidate</property>
    <property name="seekable">1</property>
    <property name="aspect_ratio">1</property>
    <property name="creation_time">2020-11-19T14:29:28</property>
    <property name="shotcut:hash">e869010384b9caeccdef663fd61596f7</property>
    <property name="global_feed">1</property>
    <property name="xml">was here</property>
    <property name="ignore_points">0</property>
    <property name="shotcut:caption">2020-11-19 14-28-53.mkv</property>
    <filter id="filter14" in="00:00:24.933" out="00:00:26.867">
      <property name="argument"></property>
      <property name="geometry">311 625 969 95 1</property>
      <property name="family">Sans</property>
      <property name="size">48</property>
      <property name="weight">400</property>
      <property name="style">normal</property>
      <property name="fgcolour">0x000000ff</property>
      <property name="bgcolour">#00000000</property>
      <property name="olcolour">0x00000000</property>
      <property name="pad">0</property>
      <property name="halign">left</property>
      <property name="valign">top</property>
      <property name="outline">0</property>
      <property name="pixel_ratio">1</property>
      <property name="mlt_service">qtext</property>
      <property name="shotcut:filter">richText</property>
      <property name="html">&lt;!DOCTYPE HTML PUBLIC &quot;-//W3C//DTD HTML 4.0//EN&quot; &quot;http://www.w3.org/TR/REC-html40/strict.dtd&quot;&gt;
&lt;html&gt;&lt;head&gt;&lt;meta name=&quot;qrichtext&quot; content=&quot;1&quot; /&gt;&lt;style type=&quot;text/css&quot;&gt;
p, li { white-space: pre-wrap; }
&lt;/style&gt;&lt;/head&gt;&lt;body style=&quot; font-family:'.AppleSystemUIFont'; font-size:13pt; font-weight:400; font-style:normal;&quot;&gt;
&lt;p align=&quot;center&quot; style=&quot; margin-top:0px; margin-bottom:0px; margin-left:0px; margin-right:0px; -qt-block-indent:0; text-indent:0px;&quot;&gt;&lt;span style=&quot; font-family:'sans-serif'; font-size:32pt; font-weight:600; color:#ffffff;&quot;&gt;they are not an exhaustive list of what ggplot2 can do but once you have learnt how to work with a few things&lt;/span&gt;&lt;/p&gt;&lt;/body&gt;&lt;/html&gt;</property>
      <property name="shotcut:animIn">00:00:00.000</property>
      <property name="shotcut:animOut">00:00:00.000</property>
    </filter>
  </producer>
  <producer id="producer21" in="00:00:00.000" out="00:00:33.567">
    <property name="length">00:00:33.600</property>
    <property name="eof">pause</property>
    <property name="resource">/Users/pgrylls/University of Southampton/SoftCarp/data-analysis-and-visualisation/Videos/Day3/Clips/2020-11-19 14-28-53.mkv</property>
    <property name="audio_index">1</property>
    <property name="video_index">0</property>
    <property name="mute_on_pause">0</property>
    <property name="mlt_service">avformat-novalidate</property>
    <property name="seekable">1</property>
    <property name="aspect_ratio">1</property>
    <property name="creation_time">2020-11-19T14:29:28</property>
    <property name="shotcut:hash">e869010384b9caeccdef663fd61596f7</property>
    <property name="global_feed">1</property>
    <property name="xml">was here</property>
    <property name="ignore_points">0</property>
    <property name="shotcut:caption">2020-11-19 14-28-53.mkv</property>
    <filter id="filter15" in="00:00:26.900" out="00:00:32.000">
      <property name="argument"></property>
      <property name="geometry">311 625 969 95 1</property>
      <property name="family">Sans</property>
      <property name="size">48</property>
      <property name="weight">400</property>
      <property name="style">normal</property>
      <property name="fgcolour">0x000000ff</property>
      <property name="bgcolour">#00000000</property>
      <property name="olcolour">0x00000000</property>
      <property name="pad">0</property>
      <property name="halign">left</property>
      <property name="valign">top</property>
      <property name="outline">0</property>
      <property name="pixel_ratio">1</property>
      <property name="mlt_service">qtext</property>
      <property name="shotcut:filter">richText</property>
      <property name="html">&lt;!DOCTYPE HTML PUBLIC &quot;-//W3C//DTD HTML 4.0//EN&quot; &quot;http://www.w3.org/TR/REC-html40/strict.dtd&quot;&gt;
&lt;html&gt;&lt;head&gt;&lt;meta name=&quot;qrichtext&quot; content=&quot;1&quot; /&gt;&lt;style type=&quot;text/css&quot;&gt;
p, li { white-space: pre-wrap; }
&lt;/style&gt;&lt;/head&gt;&lt;body style=&quot; font-family:'.AppleSystemUIFont'; font-size:13pt; font-weight:400; font-style:normal;&quot;&gt;
&lt;p align=&quot;center&quot; style=&quot; margin-top:0px; margin-bottom:0px; margin-left:0px; margin-right:0px; -qt-block-indent:0; text-indent:0px;&quot;&gt;&lt;span style=&quot; font-family:'sans-serif'; font-size:32pt; font-weight:600; color:#ffffff;&quot;&gt;the consistent style of ggplot2 will mean you can quickly pick up other types of plot&lt;/span&gt;&lt;/p&gt;&lt;/body&gt;&lt;/html&gt;</property>
      <property name="shotcut:animIn">00:00:00.000</property>
      <property name="shotcut:animOut">00:00:00.000</property>
    </filter>
  </producer>
  <producer id="producer22" in="00:00:00.000" out="00:00:15.233">
    <property name="length">00:00:15.267</property>
    <property name="eof">pause</property>
    <property name="resource">/Users/pgrylls/University of Southampton/SoftCarp/data-analysis-and-visualisation/Videos/Day3/Clips/2020-11-19 14-30-01.mkv</property>
    <property name="audio_index">1</property>
    <property name="video_index">0</property>
    <property name="mute_on_pause">0</property>
    <property name="mlt_service">avformat-novalidate</property>
    <property name="seekable">1</property>
    <property name="aspect_ratio">1</property>
    <property name="creation_time">2020-11-19T14:30:18</property>
    <property name="shotcut:hash">05934b58b8b4c679f710a9adf85b03ca</property>
    <property name="global_feed">1</property>
    <property name="xml">was here</property>
    <property name="ignore_points">0</property>
    <property name="shotcut:caption">2020-11-19 14-30-01.mkv</property>
    <filter id="filter16" out="00:00:06.667">
      <property name="argument"></property>
      <property name="geometry">311 625 969 95 1</property>
      <property name="family">Sans</property>
      <property name="size">48</property>
      <property name="weight">400</property>
      <property name="style">normal</property>
      <property name="fgcolour">0x000000ff</property>
      <property name="bgcolour">#00000000</property>
      <property name="olcolour">0x00000000</property>
      <property name="pad">0</property>
      <property name="halign">left</property>
      <property name="valign">top</property>
      <property name="outline">0</property>
      <property name="pixel_ratio">1</property>
      <property name="mlt_service">qtext</property>
      <property name="shotcut:filter">richText</property>
      <property name="html">&lt;!DOCTYPE HTML PUBLIC &quot;-//W3C//DTD HTML 4.0//EN&quot; &quot;http://www.w3.org/TR/REC-html40/strict.dtd&quot;&gt;
&lt;html&gt;&lt;head&gt;&lt;meta name=&quot;qrichtext&quot; content=&quot;1&quot; /&gt;&lt;style type=&quot;text/css&quot;&gt;
p, li { white-space: pre-wrap; }
&lt;/style&gt;&lt;/head&gt;&lt;body style=&quot; font-family:'.AppleSystemUIFont'; font-size:13pt; font-weight:400; font-style:normal;&quot;&gt;
&lt;p align=&quot;center&quot; style=&quot; margin-top:0px; margin-bottom:0px; margin-left:0px; margin-right:0px; -qt-block-indent:0; text-indent:0px;&quot;&gt;&lt;span style=&quot; font-family:'sans-serif'; font-size:32pt; font-weight:600; color:#ffffff;&quot;&gt;Faceting is where we break the dataset down into smaller plots using a factor included in the data frame. &lt;/span&gt;&lt;/p&gt;
&lt;p align=&quot;center&quot; style=&quot;-qt-paragraph-type:empty; margin-top:0px; margin-bottom:0px; margin-left:0px; margin-right:0px; -qt-block-indent:0; text-indent:0px; font-family:'sans-serif'; font-size:32pt; font-weight:600; color:#ffffff;&quot;&gt;&lt;br /&gt;&lt;/p&gt;&lt;/body&gt;&lt;/html&gt;</property>
      <property name="shotcut:animIn">00:00:00.000</property>
      <property name="shotcut:animOut">00:00:00.000</property>
    </filter>
  </producer>
  <producer id="producer23" in="00:00:00.000" out="00:00:15.233">
    <property name="length">00:00:15.267</property>
    <property name="eof">pause</property>
    <property name="resource">/Users/pgrylls/University of Southampton/SoftCarp/data-analysis-and-visualisation/Videos/Day3/Clips/2020-11-19 14-30-01.mkv</property>
    <property name="audio_index">1</property>
    <property name="video_index">0</property>
    <property name="mute_on_pause">0</property>
    <property name="mlt_service">avformat-novalidate</property>
    <property name="seekable">1</property>
    <property name="aspect_ratio">1</property>
    <property name="creation_time">2020-11-19T14:30:18</property>
    <property name="shotcut:hash">05934b58b8b4c679f710a9adf85b03ca</property>
    <property name="global_feed">1</property>
    <property name="xml">was here</property>
    <property name="ignore_points">0</property>
    <property name="shotcut:caption">2020-11-19 14-30-01.mkv</property>
    <filter id="filter17" in="00:00:06.700" out="00:00:15.233">
      <property name="argument"></property>
      <property name="geometry">311 625 969 95 1</property>
      <property name="family">Sans</property>
      <property name="size">48</property>
      <property name="weight">400</property>
      <property name="style">normal</property>
      <property name="fgcolour">0x000000ff</property>
      <property name="bgcolour">#00000000</property>
      <property name="olcolour">0x00000000</property>
      <property name="pad">0</property>
      <property name="halign">left</property>
      <property name="valign">top</property>
      <property name="outline">0</property>
      <property name="pixel_ratio">1</property>
      <property name="mlt_service">qtext</property>
      <property name="shotcut:filter">richText</property>
      <property name="html">&lt;!DOCTYPE HTML PUBLIC &quot;-//W3C//DTD HTML 4.0//EN&quot; &quot;http://www.w3.org/TR/REC-html40/strict.dtd&quot;&gt;
&lt;html&gt;&lt;head&gt;&lt;meta name=&quot;qrichtext&quot; content=&quot;1&quot; /&gt;&lt;style type=&quot;text/css&quot;&gt;
p, li { white-space: pre-wrap; }
&lt;/style&gt;&lt;/head&gt;&lt;body style=&quot; font-family:'.AppleSystemUIFont'; font-size:13pt; font-weight:400; font-style:normal;&quot;&gt;
&lt;p align=&quot;center&quot; style=&quot; margin-top:0px; margin-bottom:0px; margin-left:0px; margin-right:0px; -qt-block-indent:0; text-indent:0px;&quot;&gt;&lt;span style=&quot; font-family:'sans-serif'; font-size:28pt; font-weight:600; color:#ffffff;&quot;&gt;This is a simple example of faceting we will use the other ggplot2 techniques we have learnt to enrich our faceted plots.&lt;/span&gt;&lt;/p&gt;
&lt;p align=&quot;center&quot; style=&quot;-qt-paragraph-type:empty; margin-top:0px; margin-bottom:0px; margin-left:0px; margin-right:0px; -qt-block-indent:0; text-indent:0px; font-family:'sans-serif'; font-size:28pt; font-weight:600; color:#ffffff;&quot;&gt;&lt;br /&gt;&lt;/p&gt;&lt;/body&gt;&lt;/html&gt;</property>
      <property name="shotcut:animIn">00:00:00.000</property>
      <property name="shotcut:animOut">00:00:00.000</property>
    </filter>
  </producer>
  <producer id="producer24" in="00:00:00.000" out="00:00:36.633">
    <property name="length">00:00:36.667</property>
    <property name="eof">pause</property>
    <property name="resource">/Users/pgrylls/University of Southampton/SoftCarp/data-analysis-and-visualisation/Videos/Day3/Clips/2020-11-19 14-30-52.mkv</property>
    <property name="audio_index">1</property>
    <property name="video_index">0</property>
    <property name="mute_on_pause">0</property>
    <property name="mlt_service">avformat-novalidate</property>
    <property name="seekable">1</property>
    <property name="aspect_ratio">1</property>
    <property name="creation_time">2020-11-19T14:31:30</property>
    <property name="shotcut:hash">0491fc1eb74257d16ee3b5b8f53286dd</property>
    <property name="global_feed">1</property>
    <property name="xml">was here</property>
    <property name="ignore_points">0</property>
    <property name="shotcut:caption">2020-11-19 14-30-52.mkv</property>
    <filter id="filter18" out="00:00:04.633">
      <property name="argument"></property>
      <property name="geometry">311 625 969 95 1</property>
      <property name="family">Sans</property>
      <property name="size">48</property>
      <property name="weight">400</property>
      <property name="style">normal</property>
      <property name="fgcolour">0x000000ff</property>
      <property name="bgcolour">#00000000</property>
      <property name="olcolour">0x00000000</property>
      <property name="pad">0</property>
      <property name="halign">left</property>
      <property name="valign">top</property>
      <property name="outline">0</property>
      <property name="pixel_ratio">1</property>
      <property name="mlt_service">qtext</property>
      <property name="shotcut:filter">richText</property>
      <property name="html">&lt;!DOCTYPE HTML PUBLIC &quot;-//W3C//DTD HTML 4.0//EN&quot; &quot;http://www.w3.org/TR/REC-html40/strict.dtd&quot;&gt;
&lt;html&gt;&lt;head&gt;&lt;meta name=&quot;qrichtext&quot; content=&quot;1&quot; /&gt;&lt;style type=&quot;text/css&quot;&gt;
p, li { white-space: pre-wrap; }
&lt;/style&gt;&lt;/head&gt;&lt;body style=&quot; font-family:'.AppleSystemUIFont'; font-size:13pt; font-weight:400; font-style:normal;&quot;&gt;
&lt;p align=&quot;center&quot; style=&quot; margin-top:0px; margin-bottom:0px; margin-left:0px; margin-right:0px; -qt-block-indent:0; text-indent:0px;&quot;&gt;&lt;span style=&quot; font-family:'sans-serif'; font-size:32pt; font-weight:600; color:#ffffff;&quot;&gt;When using ggplot2 best plotting practice is still essential&lt;/span&gt;&lt;/p&gt;&lt;/body&gt;&lt;/html&gt;</property>
      <property name="shotcut:animIn">00:00:00.000</property>
      <property name="shotcut:animOut">00:00:00.000</property>
    </filter>
  </producer>
  <producer id="producer25" in="00:00:00.000" out="00:00:36.633">
    <property name="length">00:00:36.667</property>
    <property name="eof">pause</property>
    <property name="resource">/Users/pgrylls/University of Southampton/SoftCarp/data-analysis-and-visualisation/Videos/Day3/Clips/2020-11-19 14-30-52.mkv</property>
    <property name="audio_index">1</property>
    <property name="video_index">0</property>
    <property name="mute_on_pause">0</property>
    <property name="mlt_service">avformat-novalidate</property>
    <property name="seekable">1</property>
    <property name="aspect_ratio">1</property>
    <property name="creation_time">2020-11-19T14:31:30</property>
    <property name="shotcut:hash">0491fc1eb74257d16ee3b5b8f53286dd</property>
    <property name="global_feed">1</property>
    <property name="xml">was here</property>
    <property name="ignore_points">0</property>
    <property name="shotcut:caption">2020-11-19 14-30-52.mkv</property>
    <filter id="filter19" in="00:00:04.667" out="00:00:09.867">
      <property name="argument"></property>
      <property name="geometry">311 625 969 95 1</property>
      <property name="family">Sans</property>
      <property name="size">48</property>
      <property name="weight">400</property>
      <property name="style">normal</property>
      <property name="fgcolour">0x000000ff</property>
      <property name="bgcolour">#00000000</property>
      <property name="olcolour">0x00000000</property>
      <property name="pad">0</property>
      <property name="halign">left</property>
      <property name="valign">top</property>
      <property name="outline">0</property>
      <property name="pixel_ratio">1</property>
      <property name="mlt_service">qtext</property>
      <property name="shotcut:filter">richText</property>
      <property name="html">&lt;!DOCTYPE HTML PUBLIC &quot;-//W3C//DTD HTML 4.0//EN&quot; &quot;http://www.w3.org/TR/REC-html40/strict.dtd&quot;&gt;
&lt;html&gt;&lt;head&gt;&lt;meta name=&quot;qrichtext&quot; content=&quot;1&quot; /&gt;&lt;style type=&quot;text/css&quot;&gt;
p, li { white-space: pre-wrap; }
&lt;/style&gt;&lt;/head&gt;&lt;body style=&quot; font-family:'.AppleSystemUIFont'; font-size:13pt; font-weight:400; font-style:normal;&quot;&gt;
&lt;p align=&quot;center&quot; style=&quot; margin-top:0px; margin-bottom:0px; margin-left:0px; margin-right:0px; -qt-block-indent:0; text-indent:0px;&quot;&gt;&lt;span style=&quot; font-family:'sans-serif'; font-size:32pt; font-weight:600; color:#ffffff;&quot;&gt;ggplot2 provides a wide range of customisation tools to make your plots stand out. &lt;/span&gt;&lt;/p&gt;
&lt;p align=&quot;center&quot; style=&quot;-qt-paragraph-type:empty; margin-top:0px; margin-bottom:0px; margin-left:0px; margin-right:0px; -qt-block-indent:0; text-indent:0px; font-family:'sans-serif'; font-size:32pt; font-weight:600; color:#ffffff;&quot;&gt;&lt;br /&gt;&lt;/p&gt;&lt;/body&gt;&lt;/html&gt;</property>
      <property name="shotcut:animIn">00:00:00.000</property>
      <property name="shotcut:animOut">00:00:00.000</property>
    </filter>
  </producer>
  <producer id="producer26" in="00:00:00.000" out="00:00:36.633">
    <property name="length">00:00:36.667</property>
    <property name="eof">pause</property>
    <property name="resource">/Users/pgrylls/University of Southampton/SoftCarp/data-analysis-and-visualisation/Videos/Day3/Clips/2020-11-19 14-30-52.mkv</property>
    <property name="audio_index">1</property>
    <property name="video_index">0</property>
    <property name="mute_on_pause">0</property>
    <property name="mlt_service">avformat-novalidate</property>
    <property name="seekable">1</property>
    <property name="aspect_ratio">1</property>
    <property name="creation_time">2020-11-19T14:31:30</property>
    <property name="shotcut:hash">0491fc1eb74257d16ee3b5b8f53286dd</property>
    <property name="global_feed">1</property>
    <property name="xml">was here</property>
    <property name="ignore_points">0</property>
    <property name="shotcut:caption">2020-11-19 14-30-52.mkv</property>
    <filter id="filter20" in="00:00:10.833" out="00:00:15.500">
      <property name="argument"></property>
      <property name="geometry">311 625 969 95 1</property>
      <property name="family">Sans</property>
      <property name="size">48</property>
      <property name="weight">400</property>
      <property name="style">normal</property>
      <property name="fgcolour">0x000000ff</property>
      <property name="bgcolour">#00000000</property>
      <property name="olcolour">0x00000000</property>
      <property name="pad">0</property>
      <property name="halign">left</property>
      <property name="valign">top</property>
      <property name="outline">0</property>
      <property name="pixel_ratio">1</property>
      <property name="mlt_service">qtext</property>
      <property name="shotcut:filter">richText</property>
      <property name="html">&lt;!DOCTYPE HTML PUBLIC &quot;-//W3C//DTD HTML 4.0//EN&quot; &quot;http://www.w3.org/TR/REC-html40/strict.dtd&quot;&gt;
&lt;html&gt;&lt;head&gt;&lt;meta name=&quot;qrichtext&quot; content=&quot;1&quot; /&gt;&lt;style type=&quot;text/css&quot;&gt;
p, li { white-space: pre-wrap; }
&lt;/style&gt;&lt;/head&gt;&lt;body style=&quot; font-family:'.AppleSystemUIFont'; font-size:13pt; font-weight:400; font-style:normal;&quot;&gt;
&lt;p align=&quot;center&quot; style=&quot; margin-top:0px; margin-bottom:0px; margin-left:0px; margin-right:0px; -qt-block-indent:0; text-indent:0px;&quot;&gt;&lt;span style=&quot; font-family:'sans-serif'; font-size:32pt; font-weight:600; color:#ffffff;&quot;&gt;We can add the essentials like axis labels, titles and legends&lt;/span&gt;&lt;/p&gt;&lt;/body&gt;&lt;/html&gt;</property>
      <property name="shotcut:animIn">00:00:00.000</property>
      <property name="shotcut:animOut">00:00:00.000</property>
    </filter>
  </producer>
  <producer id="producer27" in="00:00:00.000" out="00:00:36.633">
    <property name="length">00:00:36.667</property>
    <property name="eof">pause</property>
    <property name="resource">/Users/pgrylls/University of Southampton/SoftCarp/data-analysis-and-visualisation/Videos/Day3/Clips/2020-11-19 14-30-52.mkv</property>
    <property name="audio_index">1</property>
    <property name="video_index">0</property>
    <property name="mute_on_pause">0</property>
    <property name="mlt_service">avformat-novalidate</property>
    <property name="seekable">1</property>
    <property name="aspect_ratio">1</property>
    <property name="creation_time">2020-11-19T14:31:30</property>
    <property name="shotcut:hash">0491fc1eb74257d16ee3b5b8f53286dd</property>
    <property name="global_feed">1</property>
    <property name="xml">was here</property>
    <property name="ignore_points">0</property>
    <property name="shotcut:caption">2020-11-19 14-30-52.mkv</property>
    <filter id="filter21" in="00:00:15.533" out="00:00:16.900">
      <property name="argument"></property>
      <property name="geometry">311 625 969 95 1</property>
      <property name="family">Sans</property>
      <property name="size">48</property>
      <property name="weight">400</property>
      <property name="style">normal</property>
      <property name="fgcolour">0x000000ff</property>
      <property name="bgcolour">#00000000</property>
      <property name="olcolour">0x00000000</property>
      <property name="pad">0</property>
      <property name="halign">left</property>
      <property name="valign">top</property>
      <property name="outline">0</property>
      <property name="pixel_ratio">1</property>
      <property name="mlt_service">qtext</property>
      <property name="shotcut:filter">richText</property>
      <property name="html">&lt;!DOCTYPE HTML PUBLIC &quot;-//W3C//DTD HTML 4.0//EN&quot; &quot;http://www.w3.org/TR/REC-html40/strict.dtd&quot;&gt;
&lt;html&gt;&lt;head&gt;&lt;meta name=&quot;qrichtext&quot; content=&quot;1&quot; /&gt;&lt;style type=&quot;text/css&quot;&gt;
p, li { white-space: pre-wrap; }
&lt;/style&gt;&lt;/head&gt;&lt;body style=&quot; font-family:'.AppleSystemUIFont'; font-size:13pt; font-weight:400; font-style:normal;&quot;&gt;
&lt;p align=&quot;center&quot; style=&quot; margin-top:0px; margin-bottom:0px; margin-left:0px; margin-right:0px; -qt-block-indent:0; text-indent:0px;&quot;&gt;&lt;span style=&quot; font-family:'sans-serif'; font-size:32pt; font-weight:600; color:#ffffff;&quot;&gt;We can also arrange and shape the plots to make them look good. &lt;/span&gt;&lt;/p&gt;
&lt;p align=&quot;center&quot; style=&quot;-qt-paragraph-type:empty; margin-top:0px; margin-bottom:0px; margin-left:0px; margin-right:0px; -qt-block-indent:0; text-indent:0px; font-family:'sans-serif'; font-size:32pt; font-weight:600; color:#ffffff;&quot;&gt;&lt;br /&gt;&lt;/p&gt;&lt;/body&gt;&lt;/html&gt;</property>
      <property name="shotcut:animIn">00:00:00.000</property>
      <property name="shotcut:animOut">00:00:00.000</property>
    </filter>
  </producer>
  <producer id="producer28" in="00:00:00.000" out="00:00:36.633">
    <property name="length">00:00:36.667</property>
    <property name="eof">pause</property>
    <property name="resource">/Users/pgrylls/University of Southampton/SoftCarp/data-analysis-and-visualisation/Videos/Day3/Clips/2020-11-19 14-30-52.mkv</property>
    <property name="audio_index">1</property>
    <property name="video_index">0</property>
    <property name="mute_on_pause">0</property>
    <property name="mlt_service">avformat-novalidate</property>
    <property name="seekable">1</property>
    <property name="aspect_ratio">1</property>
    <property name="creation_time">2020-11-19T14:31:30</property>
    <property name="shotcut:hash">0491fc1eb74257d16ee3b5b8f53286dd</property>
    <property name="global_feed">1</property>
    <property name="xml">was here</property>
    <property name="ignore_points">0</property>
    <property name="shotcut:caption">2020-11-19 14-30-52.mkv</property>
    <filter id="filter22" in="00:00:17.267" out="00:00:19.800">
      <property name="argument"></property>
      <property name="geometry">311 625 969 95 1</property>
      <property name="family">Sans</property>
      <property name="size">48</property>
      <property name="weight">400</property>
      <property name="style">normal</property>
      <property name="fgcolour">0x000000ff</property>
      <property name="bgcolour">#00000000</property>
      <property name="olcolour">0x00000000</property>
      <property name="pad">0</property>
      <property name="halign">left</property>
      <property name="valign">top</property>
      <property name="outline">0</property>
      <property name="pixel_ratio">1</property>
      <property name="mlt_service">qtext</property>
      <property name="shotcut:filter">richText</property>
      <property name="html">&lt;!DOCTYPE HTML PUBLIC &quot;-//W3C//DTD HTML 4.0//EN&quot; &quot;http://www.w3.org/TR/REC-html40/strict.dtd&quot;&gt;
&lt;html&gt;&lt;head&gt;&lt;meta name=&quot;qrichtext&quot; content=&quot;1&quot; /&gt;&lt;style type=&quot;text/css&quot;&gt;
p, li { white-space: pre-wrap; }
&lt;/style&gt;&lt;/head&gt;&lt;body style=&quot; font-family:'.AppleSystemUIFont'; font-size:13pt; font-weight:400; font-style:normal;&quot;&gt;
&lt;p align=&quot;center&quot; style=&quot; margin-top:0px; margin-bottom:0px; margin-left:0px; margin-right:0px; -qt-block-indent:0; text-indent:0px;&quot;&gt;&lt;span style=&quot; font-family:'sans-serif'; font-size:32pt; font-weight:600; color:#ffffff;&quot;&gt;We can also arrange and shape the plots to make them look good. &lt;/span&gt;&lt;/p&gt;
&lt;p align=&quot;center&quot; style=&quot;-qt-paragraph-type:empty; margin-top:0px; margin-bottom:0px; margin-left:0px; margin-right:0px; -qt-block-indent:0; text-indent:0px; font-family:'sans-serif'; font-size:32pt; font-weight:600; color:#ffffff;&quot;&gt;&lt;br /&gt;&lt;/p&gt;&lt;/body&gt;&lt;/html&gt;</property>
      <property name="shotcut:animIn">00:00:00.000</property>
      <property name="shotcut:animOut">00:00:00.000</property>
    </filter>
  </producer>
  <producer id="producer29" in="00:00:00.000" out="00:00:36.633">
    <property name="length">00:00:36.667</property>
    <property name="eof">pause</property>
    <property name="resource">/Users/pgrylls/University of Southampton/SoftCarp/data-analysis-and-visualisation/Videos/Day3/Clips/2020-11-19 14-30-52.mkv</property>
    <property name="audio_index">1</property>
    <property name="video_index">0</property>
    <property name="mute_on_pause">0</property>
    <property name="mlt_service">avformat-novalidate</property>
    <property name="seekable">1</property>
    <property name="aspect_ratio">1</property>
    <property name="creation_time">2020-11-19T14:31:30</property>
    <property name="shotcut:hash">0491fc1eb74257d16ee3b5b8f53286dd</property>
    <property name="global_feed">1</property>
    <property name="xml">was here</property>
    <property name="ignore_points">0</property>
    <property name="shotcut:caption">2020-11-19 14-30-52.mkv</property>
    <filter id="filter23" in="00:00:19.833" out="00:00:23.700">
      <property name="argument"></property>
      <property name="geometry">311 625 969 95 1</property>
      <property name="family">Sans</property>
      <property name="size">48</property>
      <property name="weight">400</property>
      <property name="style">normal</property>
      <property name="fgcolour">0x000000ff</property>
      <property name="bgcolour">#00000000</property>
      <property name="olcolour">0x00000000</property>
      <property name="pad">0</property>
      <property name="halign">left</property>
      <property name="valign">top</property>
      <property name="outline">0</property>
      <property name="pixel_ratio">1</property>
      <property name="mlt_service">qtext</property>
      <property name="shotcut:filter">richText</property>
      <property name="html">&lt;!DOCTYPE HTML PUBLIC &quot;-//W3C//DTD HTML 4.0//EN&quot; &quot;http://www.w3.org/TR/REC-html40/strict.dtd&quot;&gt;
&lt;html&gt;&lt;head&gt;&lt;meta name=&quot;qrichtext&quot; content=&quot;1&quot; /&gt;&lt;style type=&quot;text/css&quot;&gt;
p, li { white-space: pre-wrap; }
&lt;/style&gt;&lt;/head&gt;&lt;body style=&quot; font-family:'.AppleSystemUIFont'; font-size:13pt; font-weight:400; font-style:normal;&quot;&gt;
&lt;p align=&quot;center&quot; style=&quot; margin-top:0px; margin-bottom:0px; margin-left:0px; margin-right:0px; -qt-block-indent:0; text-indent:0px;&quot;&gt;&lt;span style=&quot; font-family:'sans-serif'; font-size:32pt; font-weight:600; color:#ffffff;&quot;&gt;For an extra challenge consider editing the plots for accessibility&lt;/span&gt;&lt;/p&gt;&lt;/body&gt;&lt;/html&gt;</property>
      <property name="shotcut:animIn">00:00:00.000</property>
      <property name="shotcut:animOut">00:00:00.000</property>
    </filter>
  </producer>
  <producer id="producer30" in="00:00:00.000" out="00:00:36.633">
    <property name="length">00:00:36.667</property>
    <property name="eof">pause</property>
    <property name="resource">/Users/pgrylls/University of Southampton/SoftCarp/data-analysis-and-visualisation/Videos/Day3/Clips/2020-11-19 14-30-52.mkv</property>
    <property name="audio_index">1</property>
    <property name="video_index">0</property>
    <property name="mute_on_pause">0</property>
    <property name="mlt_service">avformat-novalidate</property>
    <property name="seekable">1</property>
    <property name="aspect_ratio">1</property>
    <property name="creation_time">2020-11-19T14:31:30</property>
    <property name="shotcut:hash">0491fc1eb74257d16ee3b5b8f53286dd</property>
    <property name="global_feed">1</property>
    <property name="xml">was here</property>
    <property name="ignore_points">0</property>
    <property name="shotcut:caption">2020-11-19 14-30-52.mkv</property>
    <filter id="filter24" in="00:00:23.733" out="00:00:28.133">
      <property name="argument"></property>
      <property name="geometry">311 625 969 95 1</property>
      <property name="family">Sans</property>
      <property name="size">48</property>
      <property name="weight">400</property>
      <property name="style">normal</property>
      <property name="fgcolour">0x000000ff</property>
      <property name="bgcolour">#00000000</property>
      <property name="olcolour">0x00000000</property>
      <property name="pad">0</property>
      <property name="halign">left</property>
      <property name="valign">top</property>
      <property name="outline">0</property>
      <property name="pixel_ratio">1</property>
      <property name="mlt_service">qtext</property>
      <property name="shotcut:filter">richText</property>
      <property name="html">&lt;!DOCTYPE HTML PUBLIC &quot;-//W3C//DTD HTML 4.0//EN&quot; &quot;http://www.w3.org/TR/REC-html40/strict.dtd&quot;&gt;
&lt;html&gt;&lt;head&gt;&lt;meta name=&quot;qrichtext&quot; content=&quot;1&quot; /&gt;&lt;style type=&quot;text/css&quot;&gt;
p, li { white-space: pre-wrap; }
&lt;/style&gt;&lt;/head&gt;&lt;body style=&quot; font-family:'.AppleSystemUIFont'; font-size:13pt; font-weight:400; font-style:normal;&quot;&gt;
&lt;p align=&quot;center&quot; style=&quot; margin-top:0px; margin-bottom:0px; margin-left:0px; margin-right:0px; -qt-block-indent:0; text-indent:0px;&quot;&gt;&lt;span style=&quot; font-family:'sans-serif'; font-size:32pt; font-weight:600; color:#ffffff;&quot;&gt;ggplot2 documentation references colour-blind friendly plotting&lt;/span&gt;&lt;/p&gt;&lt;/body&gt;&lt;/html&gt;</property>
      <property name="shotcut:animIn">00:00:00.000</property>
      <property name="shotcut:animOut">00:00:00.000</property>
    </filter>
  </producer>
  <producer id="producer31" in="00:00:00.000" out="00:00:36.633">
    <property name="length">00:00:36.667</property>
    <property name="eof">pause</property>
    <property name="resource">/Users/pgrylls/University of Southampton/SoftCarp/data-analysis-and-visualisation/Videos/Day3/Clips/2020-11-19 14-30-52.mkv</property>
    <property name="audio_index">1</property>
    <property name="video_index">0</property>
    <property name="mute_on_pause">0</property>
    <property name="mlt_service">avformat-novalidate</property>
    <property name="seekable">1</property>
    <property name="aspect_ratio">1</property>
    <property name="creation_time">2020-11-19T14:31:30</property>
    <property name="shotcut:hash">0491fc1eb74257d16ee3b5b8f53286dd</property>
    <property name="global_feed">1</property>
    <property name="xml">was here</property>
    <property name="ignore_points">0</property>
    <property name="shotcut:caption">2020-11-19 14-30-52.mkv</property>
    <filter id="filter25" in="00:00:28.167" out="00:00:32.733">
      <property name="argument"></property>
      <property name="geometry">311 625 969 95 1</property>
      <property name="family">Sans</property>
      <property name="size">48</property>
      <property name="weight">400</property>
      <property name="style">normal</property>
      <property name="fgcolour">0x000000ff</property>
      <property name="bgcolour">#00000000</property>
      <property name="olcolour">0x00000000</property>
      <property name="pad">0</property>
      <property name="halign">left</property>
      <property name="valign">top</property>
      <property name="outline">0</property>
      <property name="pixel_ratio">1</property>
      <property name="mlt_service">qtext</property>
      <property name="shotcut:filter">richText</property>
      <property name="html">&lt;!DOCTYPE HTML PUBLIC &quot;-//W3C//DTD HTML 4.0//EN&quot; &quot;http://www.w3.org/TR/REC-html40/strict.dtd&quot;&gt;
&lt;html&gt;&lt;head&gt;&lt;meta name=&quot;qrichtext&quot; content=&quot;1&quot; /&gt;&lt;style type=&quot;text/css&quot;&gt;
p, li { white-space: pre-wrap; }
&lt;/style&gt;&lt;/head&gt;&lt;body style=&quot; font-family:'.AppleSystemUIFont'; font-size:13pt; font-weight:400; font-style:normal;&quot;&gt;
&lt;p align=&quot;center&quot; style=&quot; margin-top:0px; margin-bottom:0px; margin-left:0px; margin-right:0px; -qt-block-indent:0; text-indent:0px;&quot;&gt;&lt;span style=&quot; font-family:'sans-serif'; font-size:32pt; font-weight:600; color:#ffffff;&quot;&gt;we can also adopt font size and type to make it as clear as possible&lt;/span&gt;&lt;/p&gt;&lt;/body&gt;&lt;/html&gt;</property>
      <property name="shotcut:animIn">00:00:00.000</property>
      <property name="shotcut:animOut">00:00:00.000</property>
    </filter>
  </producer>
  <producer id="producer32" in="00:00:00.000" out="00:00:36.633">
    <property name="length">00:00:36.667</property>
    <property name="eof">pause</property>
    <property name="resource">/Users/pgrylls/University of Southampton/SoftCarp/data-analysis-and-visualisation/Videos/Day3/Clips/2020-11-19 14-30-52.mkv</property>
    <property name="audio_index">1</property>
    <property name="video_index">0</property>
    <property name="mute_on_pause">0</property>
    <property name="mlt_service">avformat-novalidate</property>
    <property name="seekable">1</property>
    <property name="aspect_ratio">1</property>
    <property name="creation_time">2020-11-19T14:31:30</property>
    <property name="shotcut:hash">0491fc1eb74257d16ee3b5b8f53286dd</property>
    <property name="global_feed">1</property>
    <property name="xml">was here</property>
    <property name="ignore_points">0</property>
    <property name="shotcut:caption">2020-11-19 14-30-52.mkv</property>
    <filter id="filter26" in="00:00:32.767" out="00:00:35.700">
      <property name="argument"></property>
      <property name="geometry">311 625 969 95 1</property>
      <property name="family">Sans</property>
      <property name="size">48</property>
      <property name="weight">400</property>
      <property name="style">normal</property>
      <property name="fgcolour">0x000000ff</property>
      <property name="bgcolour">#00000000</property>
      <property name="olcolour">0x00000000</property>
      <property name="pad">0</property>
      <property name="halign">left</property>
      <property name="valign">top</property>
      <property name="outline">0</property>
      <property name="pixel_ratio">1</property>
      <property name="mlt_service">qtext</property>
      <property name="shotcut:filter">richText</property>
      <property name="html">&lt;!DOCTYPE HTML PUBLIC &quot;-//W3C//DTD HTML 4.0//EN&quot; &quot;http://www.w3.org/TR/REC-html40/strict.dtd&quot;&gt;
&lt;html&gt;&lt;head&gt;&lt;meta name=&quot;qrichtext&quot; content=&quot;1&quot; /&gt;&lt;style type=&quot;text/css&quot;&gt;
p, li { white-space: pre-wrap; }
&lt;/style&gt;&lt;/head&gt;&lt;body style=&quot; font-family:'.AppleSystemUIFont'; font-size:13pt; font-weight:400; font-style:normal;&quot;&gt;
&lt;p align=&quot;center&quot; style=&quot; margin-top:0px; margin-bottom:0px; margin-left:0px; margin-right:0px; -qt-block-indent:0; text-indent:0px;&quot;&gt;&lt;span style=&quot; font-family:'sans-serif'; font-size:32pt; font-weight:600; color:#ffffff;&quot;&gt;we can also adjust the thickness of lines&lt;/span&gt;&lt;/p&gt;&lt;/body&gt;&lt;/html&gt;</property>
      <property name="shotcut:animIn">00:00:00.000</property>
      <property name="shotcut:animOut">00:00:00.000</property>
    </filter>
  </producer>
  <producer id="producer33" in="00:00:00.000" out="00:00:36.900">
    <property name="length">00:00:36.933</property>
    <property name="eof">pause</property>
    <property name="resource">/Users/pgrylls/University of Southampton/SoftCarp/data-analysis-and-visualisation/Videos/Day3/Clips/2020-11-19 14-33-18.mkv</property>
    <property name="audio_index">1</property>
    <property name="video_index">0</property>
    <property name="mute_on_pause">0</property>
    <property name="mlt_service">avformat-novalidate</property>
    <property name="seekable">1</property>
    <property name="aspect_ratio">1</property>
    <property name="creation_time">2020-11-19T14:33:57</property>
    <property name="shotcut:hash">46bf286c37d0a38f8544cf1898ec241e</property>
    <property name="global_feed">1</property>
    <property name="xml">was here</property>
    <property name="ignore_points">0</property>
    <property name="shotcut:caption">2020-11-19 14-33-18.mkv</property>
    <filter id="filter27" out="00:00:03.667">
      <property name="argument"></property>
      <property name="geometry">311 625 969 95 1</property>
      <property name="family">Sans</property>
      <property name="size">48</property>
      <property name="weight">400</property>
      <property name="style">normal</property>
      <property name="fgcolour">0x000000ff</property>
      <property name="bgcolour">#00000000</property>
      <property name="olcolour">0x00000000</property>
      <property name="pad">0</property>
      <property name="halign">left</property>
      <property name="valign">top</property>
      <property name="outline">0</property>
      <property name="pixel_ratio">1</property>
      <property name="mlt_service">qtext</property>
      <property name="shotcut:filter">richText</property>
      <property name="html">&lt;!DOCTYPE HTML PUBLIC &quot;-//W3C//DTD HTML 4.0//EN&quot; &quot;http://www.w3.org/TR/REC-html40/strict.dtd&quot;&gt;
&lt;html&gt;&lt;head&gt;&lt;meta name=&quot;qrichtext&quot; content=&quot;1&quot; /&gt;&lt;style type=&quot;text/css&quot;&gt;
p, li { white-space: pre-wrap; }
&lt;/style&gt;&lt;/head&gt;&lt;body style=&quot; font-family:'.AppleSystemUIFont'; font-size:13pt; font-weight:400; font-style:normal;&quot;&gt;
&lt;p align=&quot;center&quot; style=&quot; margin-top:0px; margin-bottom:0px; margin-left:0px; margin-right:0px; -qt-block-indent:0; text-indent:0px;&quot;&gt;&lt;span style=&quot; font-family:'sans-serif'; font-size:32pt; font-weight:600; color:#ffffff;&quot;&gt;That’s everything for today and for the course&lt;/span&gt;&lt;/p&gt;&lt;/body&gt;&lt;/html&gt;</property>
      <property name="shotcut:animIn">00:00:00.000</property>
      <property name="shotcut:animOut">00:00:00.000</property>
    </filter>
  </producer>
  <producer id="producer34" in="00:00:00.000" out="00:00:36.900">
    <property name="length">00:00:36.933</property>
    <property name="eof">pause</property>
    <property name="resource">/Users/pgrylls/University of Southampton/SoftCarp/data-analysis-and-visualisation/Videos/Day3/Clips/2020-11-19 14-33-18.mkv</property>
    <property name="audio_index">1</property>
    <property name="video_index">0</property>
    <property name="mute_on_pause">0</property>
    <property name="mlt_service">avformat-novalidate</property>
    <property name="seekable">1</property>
    <property name="aspect_ratio">1</property>
    <property name="creation_time">2020-11-19T14:33:57</property>
    <property name="shotcut:hash">46bf286c37d0a38f8544cf1898ec241e</property>
    <property name="global_feed">1</property>
    <property name="xml">was here</property>
    <property name="ignore_points">0</property>
    <property name="shotcut:caption">2020-11-19 14-33-18.mkv</property>
    <filter id="filter28" in="00:00:03.700" out="00:00:08.667">
      <property name="argument"></property>
      <property name="geometry">311 625 969 95 1</property>
      <property name="family">Sans</property>
      <property name="size">48</property>
      <property name="weight">400</property>
      <property name="style">normal</property>
      <property name="fgcolour">0x000000ff</property>
      <property name="bgcolour">#00000000</property>
      <property name="olcolour">0x00000000</property>
      <property name="pad">0</property>
      <property name="halign">left</property>
      <property name="valign">top</property>
      <property name="outline">0</property>
      <property name="pixel_ratio">1</property>
      <property name="mlt_service">qtext</property>
      <property name="shotcut:filter">richText</property>
      <property name="html">&lt;!DOCTYPE HTML PUBLIC &quot;-//W3C//DTD HTML 4.0//EN&quot; &quot;http://www.w3.org/TR/REC-html40/strict.dtd&quot;&gt;
&lt;html&gt;&lt;head&gt;&lt;meta name=&quot;qrichtext&quot; content=&quot;1&quot; /&gt;&lt;style type=&quot;text/css&quot;&gt;
p, li { white-space: pre-wrap; }
&lt;/style&gt;&lt;/head&gt;&lt;body style=&quot; font-family:'.AppleSystemUIFont'; font-size:13pt; font-weight:400; font-style:normal;&quot;&gt;
&lt;p align=&quot;center&quot; style=&quot; margin-top:0px; margin-bottom:0px; margin-left:0px; margin-right:0px; -qt-block-indent:0; text-indent:0px;&quot;&gt;&lt;span style=&quot; font-family:'sans-serif'; font-size:32pt; font-weight:600; color:#ffffff;&quot;&gt;Don’t be fooled by the shorter video today ggplot2 is a good and capable plotting tool &lt;/span&gt;&lt;/p&gt;
&lt;p align=&quot;center&quot; style=&quot;-qt-paragraph-type:empty; margin-top:0px; margin-bottom:0px; margin-left:0px; margin-right:0px; -qt-block-indent:0; text-indent:0px; font-family:'sans-serif'; font-size:32pt; font-weight:600; color:#ffffff;&quot;&gt;&lt;br /&gt;&lt;/p&gt;&lt;/body&gt;&lt;/html&gt;</property>
      <property name="shotcut:animIn">00:00:00.000</property>
      <property name="shotcut:animOut">00:00:00.000</property>
    </filter>
  </producer>
  <producer id="producer35" in="00:00:00.000" out="00:00:36.900">
    <property name="length">00:00:36.933</property>
    <property name="eof">pause</property>
    <property name="resource">/Users/pgrylls/University of Southampton/SoftCarp/data-analysis-and-visualisation/Videos/Day3/Clips/2020-11-19 14-33-18.mkv</property>
    <property name="audio_index">1</property>
    <property name="video_index">0</property>
    <property name="mute_on_pause">0</property>
    <property name="mlt_service">avformat-novalidate</property>
    <property name="seekable">1</property>
    <property name="aspect_ratio">1</property>
    <property name="creation_time">2020-11-19T14:33:57</property>
    <property name="shotcut:hash">46bf286c37d0a38f8544cf1898ec241e</property>
    <property name="global_feed">1</property>
    <property name="xml">was here</property>
    <property name="ignore_points">0</property>
    <property name="shotcut:caption">2020-11-19 14-33-18.mkv</property>
    <filter id="filter29" in="00:00:08.700" out="00:00:10.967">
      <property name="argument"></property>
      <property name="geometry">311 625 969 95 1</property>
      <property name="family">Sans</property>
      <property name="size">48</property>
      <property name="weight">400</property>
      <property name="style">normal</property>
      <property name="fgcolour">0x000000ff</property>
      <property name="bgcolour">#00000000</property>
      <property name="olcolour">0x00000000</property>
      <property name="pad">0</property>
      <property name="halign">left</property>
      <property name="valign">top</property>
      <property name="outline">0</property>
      <property name="pixel_ratio">1</property>
      <property name="mlt_service">qtext</property>
      <property name="shotcut:filter">richText</property>
      <property name="html">&lt;!DOCTYPE HTML PUBLIC &quot;-//W3C//DTD HTML 4.0//EN&quot; &quot;http://www.w3.org/TR/REC-html40/strict.dtd&quot;&gt;
&lt;html&gt;&lt;head&gt;&lt;meta name=&quot;qrichtext&quot; content=&quot;1&quot; /&gt;&lt;style type=&quot;text/css&quot;&gt;
p, li { white-space: pre-wrap; }
&lt;/style&gt;&lt;/head&gt;&lt;body style=&quot; font-family:'.AppleSystemUIFont'; font-size:13pt; font-weight:400; font-style:normal;&quot;&gt;
&lt;p align=&quot;center&quot; style=&quot; margin-top:0px; margin-bottom:0px; margin-left:0px; margin-right:0px; -qt-block-indent:0; text-indent:0px;&quot;&gt;&lt;span style=&quot; font-family:'sans-serif'; font-size:32pt; font-weight:600; color:#ffffff;&quot;&gt;but it will still take time and practice to get right&lt;/span&gt;&lt;/p&gt;&lt;/body&gt;&lt;/html&gt;</property>
      <property name="shotcut:animIn">00:00:00.000</property>
      <property name="shotcut:animOut">00:00:00.000</property>
    </filter>
  </producer>
  <producer id="producer36" in="00:00:00.000" out="00:00:36.900">
    <property name="length">00:00:36.933</property>
    <property name="eof">pause</property>
    <property name="resource">/Users/pgrylls/University of Southampton/SoftCarp/data-analysis-and-visualisation/Videos/Day3/Clips/2020-11-19 14-33-18.mkv</property>
    <property name="audio_index">1</property>
    <property name="video_index">0</property>
    <property name="mute_on_pause">0</property>
    <property name="mlt_service">avformat-novalidate</property>
    <property name="seekable">1</property>
    <property name="aspect_ratio">1</property>
    <property name="creation_time">2020-11-19T14:33:57</property>
    <property name="shotcut:hash">46bf286c37d0a38f8544cf1898ec241e</property>
    <property name="global_feed">1</property>
    <property name="xml">was here</property>
    <property name="ignore_points">0</property>
    <property name="shotcut:caption">2020-11-19 14-33-18.mkv</property>
    <filter id="filter30" in="00:00:11.000" out="00:00:15.567">
      <property name="argument"></property>
      <property name="geometry">311 625 969 95 1</property>
      <property name="family">Sans</property>
      <property name="size">48</property>
      <property name="weight">400</property>
      <property name="style">normal</property>
      <property name="fgcolour">0x000000ff</property>
      <property name="bgcolour">#00000000</property>
      <property name="olcolour">0x00000000</property>
      <property name="pad">0</property>
      <property name="halign">left</property>
      <property name="valign">top</property>
      <property name="outline">0</property>
      <property name="pixel_ratio">1</property>
      <property name="mlt_service">qtext</property>
      <property name="shotcut:filter">richText</property>
      <property name="html">&lt;!DOCTYPE HTML PUBLIC &quot;-//W3C//DTD HTML 4.0//EN&quot; &quot;http://www.w3.org/TR/REC-html40/strict.dtd&quot;&gt;
&lt;html&gt;&lt;head&gt;&lt;meta name=&quot;qrichtext&quot; content=&quot;1&quot; /&gt;&lt;style type=&quot;text/css&quot;&gt;
p, li { white-space: pre-wrap; }
&lt;/style&gt;&lt;/head&gt;&lt;body style=&quot; font-family:'.AppleSystemUIFont'; font-size:13pt; font-weight:400; font-style:normal;&quot;&gt;
&lt;p align=&quot;center&quot; style=&quot; margin-top:0px; margin-bottom:0px; margin-left:0px; margin-right:0px; -qt-block-indent:0; text-indent:0px;&quot;&gt;&lt;span style=&quot; font-family:'sans-serif'; font-size:32pt; font-weight:600; color:#ffffff;&quot;&gt;Remember mistakes are good, debug, ask peers, then ask us. &lt;/span&gt;&lt;/p&gt;
&lt;p align=&quot;center&quot; style=&quot;-qt-paragraph-type:empty; margin-top:0px; margin-bottom:0px; margin-left:0px; margin-right:0px; -qt-block-indent:0; text-indent:0px; font-family:'sans-serif'; font-size:32pt; font-weight:600; color:#ffffff;&quot;&gt;&lt;br /&gt;&lt;/p&gt;&lt;/body&gt;&lt;/html&gt;</property>
      <property name="shotcut:animIn">00:00:00.000</property>
      <property name="shotcut:animOut">00:00:00.000</property>
    </filter>
  </producer>
  <producer id="producer37" in="00:00:00.000" out="00:00:36.900">
    <property name="length">00:00:36.933</property>
    <property name="eof">pause</property>
    <property name="resource">/Users/pgrylls/University of Southampton/SoftCarp/data-analysis-and-visualisation/Videos/Day3/Clips/2020-11-19 14-33-18.mkv</property>
    <property name="audio_index">1</property>
    <property name="video_index">0</property>
    <property name="mute_on_pause">0</property>
    <property name="mlt_service">avformat-novalidate</property>
    <property name="seekable">1</property>
    <property name="aspect_ratio">1</property>
    <property name="creation_time">2020-11-19T14:33:57</property>
    <property name="shotcut:hash">46bf286c37d0a38f8544cf1898ec241e</property>
    <property name="global_feed">1</property>
    <property name="xml">was here</property>
    <property name="ignore_points">0</property>
    <property name="shotcut:caption">2020-11-19 14-33-18.mkv</property>
    <filter id="filter31" in="00:00:15.600" out="00:00:20.067">
      <property name="argument"></property>
      <property name="geometry">311 625 969 95 1</property>
      <property name="family">Sans</property>
      <property name="size">48</property>
      <property name="weight">400</property>
      <property name="style">normal</property>
      <property name="fgcolour">0x000000ff</property>
      <property name="bgcolour">#00000000</property>
      <property name="olcolour">0x00000000</property>
      <property name="pad">0</property>
      <property name="halign">left</property>
      <property name="valign">top</property>
      <property name="outline">0</property>
      <property name="pixel_ratio">1</property>
      <property name="mlt_service">qtext</property>
      <property name="shotcut:filter">richText</property>
      <property name="html">&lt;!DOCTYPE HTML PUBLIC &quot;-//W3C//DTD HTML 4.0//EN&quot; &quot;http://www.w3.org/TR/REC-html40/strict.dtd&quot;&gt;
&lt;html&gt;&lt;head&gt;&lt;meta name=&quot;qrichtext&quot; content=&quot;1&quot; /&gt;&lt;style type=&quot;text/css&quot;&gt;
p, li { white-space: pre-wrap; }
&lt;/style&gt;&lt;/head&gt;&lt;body style=&quot; font-family:'.AppleSystemUIFont'; font-size:13pt; font-weight:400; font-style:normal;&quot;&gt;
&lt;p align=&quot;center&quot; style=&quot; margin-top:0px; margin-bottom:0px; margin-left:0px; margin-right:0px; -qt-block-indent:0; text-indent:0px;&quot;&gt;&lt;span style=&quot; font-family:'sans-serif'; font-size:32pt; font-weight:600; color:#ffffff;&quot;&gt;Once you finish the material try to make some plots beyond the scope of the lesson&lt;/span&gt;&lt;/p&gt;&lt;/body&gt;&lt;/html&gt;</property>
      <property name="shotcut:animIn">00:00:00.000</property>
      <property name="shotcut:animOut">00:00:00.000</property>
    </filter>
  </producer>
  <producer id="producer38" in="00:00:00.000" out="00:00:36.900">
    <property name="length">00:00:36.933</property>
    <property name="eof">pause</property>
    <property name="resource">/Users/pgrylls/University of Southampton/SoftCarp/data-analysis-and-visualisation/Videos/Day3/Clips/2020-11-19 14-33-18.mkv</property>
    <property name="audio_index">1</property>
    <property name="video_index">0</property>
    <property name="mute_on_pause">0</property>
    <property name="mlt_service">avformat-novalidate</property>
    <property name="seekable">1</property>
    <property name="aspect_ratio">1</property>
    <property name="creation_time">2020-11-19T14:33:57</property>
    <property name="shotcut:hash">46bf286c37d0a38f8544cf1898ec241e</property>
    <property name="global_feed">1</property>
    <property name="xml">was here</property>
    <property name="ignore_points">0</property>
    <property name="shotcut:caption">2020-11-19 14-33-18.mkv</property>
    <filter id="filter32" in="00:00:20.100" out="00:00:23.133">
      <property name="argument"></property>
      <property name="geometry">311 625 969 95 1</property>
      <property name="family">Sans</property>
      <property name="size">48</property>
      <property name="weight">400</property>
      <property name="style">normal</property>
      <property name="fgcolour">0x000000ff</property>
      <property name="bgcolour">#00000000</property>
      <property name="olcolour">0x00000000</property>
      <property name="pad">0</property>
      <property name="halign">left</property>
      <property name="valign">top</property>
      <property name="outline">0</property>
      <property name="pixel_ratio">1</property>
      <property name="mlt_service">qtext</property>
      <property name="shotcut:filter">richText</property>
      <property name="html">&lt;!DOCTYPE HTML PUBLIC &quot;-//W3C//DTD HTML 4.0//EN&quot; &quot;http://www.w3.org/TR/REC-html40/strict.dtd&quot;&gt;
&lt;html&gt;&lt;head&gt;&lt;meta name=&quot;qrichtext&quot; content=&quot;1&quot; /&gt;&lt;style type=&quot;text/css&quot;&gt;
p, li { white-space: pre-wrap; }
&lt;/style&gt;&lt;/head&gt;&lt;body style=&quot; font-family:'.AppleSystemUIFont'; font-size:13pt; font-weight:400; font-style:normal;&quot;&gt;
&lt;p align=&quot;center&quot; style=&quot; margin-top:0px; margin-bottom:0px; margin-left:0px; margin-right:0px; -qt-block-indent:0; text-indent:0px;&quot;&gt;&lt;span style=&quot; font-family:'sans-serif'; font-size:32pt; font-weight:600; color:#ffffff;&quot;&gt;either add accessible features or create new plots all together&lt;/span&gt;&lt;/p&gt;&lt;/body&gt;&lt;/html&gt;</property>
      <property name="shotcut:animIn">00:00:00.000</property>
      <property name="shotcut:animOut">00:00:00.000</property>
    </filter>
  </producer>
  <producer id="producer39" in="00:00:00.000" out="00:00:36.900">
    <property name="length">00:00:36.933</property>
    <property name="eof">pause</property>
    <property name="resource">/Users/pgrylls/University of Southampton/SoftCarp/data-analysis-and-visualisation/Videos/Day3/Clips/2020-11-19 14-33-18.mkv</property>
    <property name="audio_index">1</property>
    <property name="video_index">0</property>
    <property name="mute_on_pause">0</property>
    <property name="mlt_service">avformat-novalidate</property>
    <property name="seekable">1</property>
    <property name="aspect_ratio">1</property>
    <property name="creation_time">2020-11-19T14:33:57</property>
    <property name="shotcut:hash">46bf286c37d0a38f8544cf1898ec241e</property>
    <property name="global_feed">1</property>
    <property name="xml">was here</property>
    <property name="ignore_points">0</property>
    <property name="shotcut:caption">2020-11-19 14-33-18.mkv</property>
    <filter id="filter33" in="00:00:23.800" out="00:00:30.933">
      <property name="argument"></property>
      <property name="geometry">311 625 969 95 1</property>
      <property name="family">Sans</property>
      <property name="size">48</property>
      <property name="weight">400</property>
      <property name="style">normal</property>
      <property name="fgcolour">0x000000ff</property>
      <property name="bgcolour">#00000000</property>
      <property name="olcolour">0x00000000</property>
      <property name="pad">0</property>
      <property name="halign">left</property>
      <property name="valign">top</property>
      <property name="outline">0</property>
      <property name="pixel_ratio">1</property>
      <property name="mlt_service">qtext</property>
      <property name="shotcut:filter">richText</property>
      <property name="html">&lt;!DOCTYPE HTML PUBLIC &quot;-//W3C//DTD HTML 4.0//EN&quot; &quot;http://www.w3.org/TR/REC-html40/strict.dtd&quot;&gt;
&lt;html&gt;&lt;head&gt;&lt;meta name=&quot;qrichtext&quot; content=&quot;1&quot; /&gt;&lt;style type=&quot;text/css&quot;&gt;
p, li { white-space: pre-wrap; }
&lt;/style&gt;&lt;/head&gt;&lt;body style=&quot; font-family:'.AppleSystemUIFont'; font-size:13pt; font-weight:400; font-style:normal;&quot;&gt;
&lt;p align=&quot;center&quot; style=&quot; margin-top:0px; margin-bottom:0px; margin-left:0px; margin-right:0px; -qt-block-indent:0; text-indent:0px;&quot;&gt;&lt;span style=&quot; font-family:'sans-serif'; font-size:28pt; font-weight:600; color:#ffffff;&quot;&gt;Use the ggplot2 cheat sheet linked in the lesson or search for the documentation to see more of what it has to offer&lt;/span&gt;&lt;/p&gt;&lt;/body&gt;&lt;/html&gt;</property>
      <property name="shotcut:animIn">00:00:00.000</property>
      <property name="shotcut:animOut">00:00:00.000</property>
    </filter>
  </producer>
  <producer id="producer40" in="00:00:00.000" out="00:00:36.900">
    <property name="length">00:00:36.933</property>
    <property name="eof">pause</property>
    <property name="resource">/Users/pgrylls/University of Southampton/SoftCarp/data-analysis-and-visualisation/Videos/Day3/Clips/2020-11-19 14-33-18.mkv</property>
    <property name="audio_index">1</property>
    <property name="video_index">0</property>
    <property name="mute_on_pause">0</property>
    <property name="mlt_service">avformat-novalidate</property>
    <property name="seekable">1</property>
    <property name="aspect_ratio">1</property>
    <property name="creation_time">2020-11-19T14:33:57</property>
    <property name="shotcut:hash">46bf286c37d0a38f8544cf1898ec241e</property>
    <property name="global_feed">1</property>
    <property name="xml">was here</property>
    <property name="ignore_points">0</property>
    <property name="shotcut:caption">2020-11-19 14-33-18.mkv</property>
    <filter id="filter34" in="00:00:30.967" out="00:00:35.300">
      <property name="argument"></property>
      <property name="geometry">311 625 969 95 1</property>
      <property name="family">Sans</property>
      <property name="size">48</property>
      <property name="weight">400</property>
      <property name="style">normal</property>
      <property name="fgcolour">0x000000ff</property>
      <property name="bgcolour">#00000000</property>
      <property name="olcolour">0x00000000</property>
      <property name="pad">0</property>
      <property name="halign">left</property>
      <property name="valign">top</property>
      <property name="outline">0</property>
      <property name="pixel_ratio">1</property>
      <property name="mlt_service">qtext</property>
      <property name="shotcut:filter">richText</property>
      <property name="html">&lt;!DOCTYPE HTML PUBLIC &quot;-//W3C//DTD HTML 4.0//EN&quot; &quot;http://www.w3.org/TR/REC-html40/strict.dtd&quot;&gt;
&lt;html&gt;&lt;head&gt;&lt;meta name=&quot;qrichtext&quot; content=&quot;1&quot; /&gt;&lt;style type=&quot;text/css&quot;&gt;
p, li { white-space: pre-wrap; }
&lt;/style&gt;&lt;/head&gt;&lt;body style=&quot; font-family:'.AppleSystemUIFont'; font-size:13pt; font-weight:400; font-style:normal;&quot;&gt;
&lt;p align=&quot;center&quot; style=&quot; margin-top:0px; margin-bottom:0px; margin-left:0px; margin-right:0px; -qt-block-indent:0; text-indent:0px;&quot;&gt;&lt;span style=&quot; font-family:'sans-serif'; font-size:32pt; font-weight:600; color:#ffffff;&quot;&gt;I’m looking forward to see the plots you come up with on teams and in the wrap up!&lt;/span&gt;&lt;/p&gt;
&lt;p align=&quot;center&quot; style=&quot;-qt-paragraph-type:empty; margin-top:0px; margin-bottom:0px; margin-left:0px; margin-right:0px; -qt-block-indent:0; text-indent:0px; font-family:'sans-serif'; font-size:32pt; font-weight:600; color:#ffffff;&quot;&gt;&lt;br /&gt;&lt;/p&gt;&lt;/body&gt;&lt;/html&gt;</property>
      <property name="shotcut:animIn">00:00:00.000</property>
      <property name="shotcut:animOut">00:00:00.000</property>
    </filter>
  </producer>
  <playlist id="playlist0">
    <property name="shotcut:video">1</property>
    <property name="shotcut:name">V1</property>
    <entry producer="producer6" in="00:00:00.000" out="00:00:06.100"/>
    <entry producer="producer7" in="00:00:06.133" out="00:00:16.067"/>
    <entry producer="producer8" in="00:00:16.100" out="00:00:21.567"/>
    <entry producer="producer9" in="00:00:01.167" out="00:00:06.367"/>
    <entry producer="producer10" in="00:00:06.400" out="00:00:11.700"/>
    <entry producer="producer11" in="00:00:11.733" out="00:00:16.200"/>
    <entry producer="producer12" in="00:00:16.233" out="00:00:19.733"/>
    <entry producer="producer13" in="00:00:19.767" out="00:00:24.100"/>
    <entry producer="producer14" in="00:00:24.133" out="00:00:28.233"/>
    <entry producer="producer15" in="00:00:00.733" out="00:00:05.233"/>
    <entry producer="producer16" in="00:00:05.267" out="00:00:08.867"/>
    <entry producer="producer17" in="00:00:08.900" out="00:00:13.100"/>
    <entry producer="producer18" in="00:00:13.900" out="00:00:19.200"/>
    <entry producer="producer19" in="00:00:19.233" out="00:00:24.400"/>
    <entry producer="producer20" in="00:00:24.933" out="00:00:26.867"/>
    <entry producer="producer21" in="00:00:26.900" out="00:00:32.000"/>
    <entry producer="producer22" in="00:00:00.000" out="00:00:06.667"/>
    <entry producer="producer23" in="00:00:06.700" out="00:00:15.233"/>
    <entry producer="producer24" in="00:00:00.000" out="00:00:04.633"/>
    <entry producer="producer25" in="00:00:04.667" out="00:00:09.867"/>
    <entry producer="producer26" in="00:00:10.833" out="00:00:15.500"/>
    <entry producer="producer27" in="00:00:15.533" out="00:00:16.900"/>
    <entry producer="producer28" in="00:00:17.267" out="00:00:19.800"/>
    <entry producer="producer29" in="00:00:19.833" out="00:00:23.700"/>
    <entry producer="producer30" in="00:00:23.733" out="00:00:28.133"/>
    <entry producer="producer31" in="00:00:28.167" out="00:00:32.733"/>
    <entry producer="producer32" in="00:00:32.767" out="00:00:35.700"/>
    <entry producer="producer33" in="00:00:00.000" out="00:00:03.667"/>
    <entry producer="producer34" in="00:00:03.700" out="00:00:08.667"/>
    <entry producer="producer35" in="00:00:08.700" out="00:00:10.967"/>
    <entry producer="producer36" in="00:00:11.000" out="00:00:15.567"/>
    <entry producer="producer37" in="00:00:15.600" out="00:00:20.067"/>
    <entry producer="producer38" in="00:00:20.100" out="00:00:23.133"/>
    <entry producer="producer39" in="00:00:23.800" out="00:00:30.933"/>
    <entry producer="producer40" in="00:00:30.967" out="00:00:35.300"/>
  </playlist>
  <tractor id="tractor0" title="Shotcut version 20.10.31" global_feed="1" in="00:00:00.000" out="00:02:43.133">
    <property name="shotcut">1</property>
    <property name="shotcut:projectAudioChannels">2</property>
    <property name="shotcut:projectFolder">0</property>
    <track producer="background"/>
    <track producer="playlist0"/>
    <transition id="transition0">
      <property name="a_track">0</property>
      <property name="b_track">1</property>
      <property name="mlt_service">mix</property>
      <property name="always_active">1</property>
      <property name="sum">1</property>
    </transition>
    <transition id="transition1">
      <property name="a_track">0</property>
      <property name="b_track">1</property>
      <property name="version">0.9</property>
      <property name="mlt_service">frei0r.cairoblend</property>
      <property name="disable">1</property>
    </transition>
  </tractor>
</mlt>
